<?xml version="1.0" standalone="no"?>
<!DOCTYPE svg PUBLIC "-//W3C//DTD SVG 20010904//EN"
 "http://www.w3.org/TR/2001/REC-SVG-20010904/DTD/svg10.dtd">
<svg version="1.0" xmlns="http://www.w3.org/2000/svg"
 width="478.000000pt" height="473.000000pt" viewBox="0 0 478.000000 473.000000"
 preserveAspectRatio="xMidYMid meet">

<g transform="translate(0.000000,473.000000) scale(0.100000,-0.100000)"
fill="#000000" stroke="none">
<path d="M2729 4649 c-8 -5 -26 -9 -41 -9 -15 0 -30 -4 -33 -10 -3 -5 -14 -10
-23 -10 -9 0 -28 -11 -42 -25 -24 -23 -30 -24 -53 -14 -22 10 -30 8 -53 -10
-15 -11 -37 -21 -49 -21 -27 0 -75 -36 -75 -57 0 -8 18 -32 40 -54 33 -33 40
-46 40 -79 0 -22 9 -54 20 -72 24 -40 26 -75 3 -100 -16 -18 -18 -17 -50 14
-28 27 -35 30 -44 18 -16 -25 -6 -82 16 -94 11 -6 31 -19 44 -28 13 -10 34
-18 46 -18 12 0 34 -12 48 -27 15 -16 37 -36 48 -46 15 -14 20 -27 17 -48 -3
-17 -1 -32 4 -35 4 -3 8 -12 8 -20 0 -9 10 -24 22 -34 l22 -18 -24 -36 c-31
-45 -50 -47 -45 -5 4 30 3 31 -16 13 -10 -9 -19 -27 -19 -40 0 -13 -5 -26 -10
-29 -7 -4 -6 -13 1 -26 7 -14 7 -24 0 -33 -15 -18 -4 -26 36 -26 22 0 33 -5
33 -14 0 -8 10 -18 21 -21 14 -5 18 -10 10 -14 -21 -13 -1 -41 24 -35 34 8 65
-4 65 -27 0 -21 -26 -27 -32 -7 -3 9 -12 9 -37 -2 -23 -9 -29 -15 -19 -21 7
-5 25 -7 39 -4 17 4 30 0 39 -10 7 -8 19 -15 27 -15 12 0 14 -7 9 -32 -4 -18
-11 -34 -16 -36 -15 -5 -12 -22 4 -22 8 0 16 7 20 15 6 17 42 20 51 5 11 -18
73 -12 85 9 14 28 13 29 -17 23 -23 -4 -25 -2 -19 14 5 10 11 28 14 39 2 11
11 28 19 37 13 14 12 19 -7 38 -25 25 -20 50 10 50 11 0 20 5 20 10 0 6 7 10
15 10 8 0 20 10 26 23 7 12 19 27 27 33 12 9 13 17 2 50 -15 44 -27 56 -52 48
-30 -9 -61 14 -54 41 3 13 -1 36 -9 51 -13 26 -13 30 5 49 11 12 23 36 26 55
4 19 15 40 24 47 10 7 23 27 31 44 12 31 11 33 -19 59 -24 20 -40 25 -67 22
-19 -2 -35 -7 -35 -9 0 -3 14 -28 30 -55 17 -27 26 -47 21 -44 -19 12 -74 101
-73 118 1 21 -14 33 -23 18 -3 -5 -19 -10 -34 -10 -15 0 -33 -6 -40 -12 -10
-11 -15 -9 -27 6 -22 31 0 46 66 46 39 0 62 5 70 15 18 22 25 102 10 129 -20
39 -9 69 34 89 21 10 48 17 60 15 20 -3 22 -11 30 -122 7 -100 6 -125 -7 -152
l-16 -33 32 -7 c18 -3 44 -15 58 -25 15 -10 51 -24 80 -29 30 -6 64 -15 76
-20 38 -16 69 4 93 56 11 27 18 54 16 60 -3 7 -24 19 -47 25 -44 14 -79 55
-79 95 0 27 34 70 71 89 15 9 34 25 40 36 10 19 5 28 -49 80 -45 44 -64 57
-81 52 -12 -3 -32 2 -47 11 -23 16 -31 16 -94 2 -37 -9 -82 -24 -100 -33 l-31
-18 -37 42 c-41 46 -81 66 -103 52z m-189 -513 c0 -3 -4 -8 -10 -11 -5 -3 -10
-1 -10 4 0 6 5 11 10 11 6 0 10 -2 10 -4z m269 -196 c1 -13 0 -13 -9 0 -5 8
-9 24 -9 35 l0 20 9 -20 c5 -11 9 -27 9 -35z m-164 -140 c3 -5 1 -10 -4 -10
-6 0 -11 5 -11 10 0 6 2 10 4 10 3 0 8 -4 11 -10z m-55 -100 c0 -5 -7 -10 -15
-10 -8 0 -15 5 -15 10 0 6 7 10 15 10 8 0 15 -4 15 -10z"/>
<path d="M1894 4498 c-5 -7 -14 -22 -20 -33 -10 -19 -22 -22 -53 -14 -12 4
-101 -123 -101 -143 0 -5 9 -17 20 -28 16 -16 28 -19 62 -14 34 5 47 2 60 -12
42 -47 26 -109 -22 -84 -18 10 -26 5 -65 -37 -48 -52 -52 -64 -31 -82 16 -13
42 -6 50 15 7 19 38 18 73 -2 27 -16 31 -16 73 5 24 11 49 21 56 21 21 0 64
-60 64 -90 0 -33 -12 -44 -63 -58 -43 -12 -87 -49 -87 -74 0 -12 14 -19 50
-27 28 -6 62 -11 75 -11 14 0 29 -8 35 -20 6 -11 21 -20 33 -20 25 0 34 -6 60
-36 26 -31 14 -50 -31 -48 -34 2 -51 -8 -52 -29 0 -5 5 -5 11 -2 6 4 5 -2 -3
-14 -8 -13 -19 -19 -28 -15 -45 20 -106 -19 -112 -70 -4 -35 -3 -35 57 -57 33
-11 66 -23 74 -25 9 -3 11 -14 7 -39 l-7 -35 41 0 c44 0 47 -5 24 -38 -8 -12
-13 -26 -10 -31 11 -17 -5 -40 -35 -50 -16 -5 -29 -15 -29 -20 0 -6 -16 -11
-36 -11 -24 0 -41 -6 -50 -17 -7 -10 -16 -14 -21 -10 -4 5 4 19 18 31 15 13
32 33 38 45 10 18 9 21 -7 21 -10 0 -22 -4 -28 -10 -14 -14 -56 0 -50 16 7 17
4 17 -29 2 -14 -6 -25 -18 -25 -27 0 -25 -30 -63 -46 -57 -7 3 -11 0 -8 -7 2
-7 -5 -18 -15 -24 -17 -11 -22 -9 -36 9 -12 19 -15 19 -15 5 0 -23 -27 -22
-35 2 -3 11 -13 22 -21 25 -10 4 -13 13 -9 26 6 20 -9 28 -20 10 -13 -20 -33
-9 -39 22 -5 24 -2 34 10 41 11 6 14 16 9 35 -6 26 -6 26 14 7 16 -13 24 -16
33 -7 7 7 19 7 34 2 35 -14 40 6 11 44 -16 21 -28 52 -32 89 -6 50 -5 57 11
63 11 3 31 10 45 16 l27 9 -22 23 c-65 70 -73 86 -80 158 -3 39 -9 75 -12 80
-4 6 -27 7 -55 3 -40 -6 -49 -4 -49 8 0 27 -26 40 -50 25 -19 -12 -23 -10 -41
15 -21 27 -52 36 -64 17 -10 -17 -41 -11 -61 11 -22 24 -52 20 -105 -17 -19
-13 -44 -24 -55 -24 -36 0 -83 -60 -95 -122 -10 -51 -9 -60 8 -90 14 -24 28
-34 54 -39 18 -3 48 -13 66 -22 23 -12 44 -15 78 -10 47 6 47 6 35 -16 -17
-33 -7 -47 39 -55 32 -5 51 -1 82 15 l42 21 41 -30 c25 -18 42 -39 44 -53 2
-20 -6 -28 -48 -47 -49 -23 -50 -24 -46 -60 3 -24 -1 -44 -11 -57 -15 -20 -15
-20 -10 3 3 12 1 20 -4 16 -5 -3 -9 -12 -9 -20 0 -8 -5 -14 -11 -14 -7 0 -8 7
-4 18 16 38 18 62 3 57 -23 -9 -39 -45 -45 -101 -5 -43 -3 -54 9 -54 8 0 18 4
24 10 7 7 9 -2 6 -25 -3 -22 -13 -42 -28 -54 -13 -10 -21 -21 -17 -25 3 -3 -1
-21 -10 -38 -9 -18 -18 -41 -21 -52 -6 -17 -8 -16 -27 8 -11 15 -37 35 -57 45
l-36 18 30 29 c53 51 66 73 74 114 9 51 -3 69 -55 77 -22 3 -49 12 -60 19 -11
8 -27 14 -36 14 -10 0 -31 17 -48 37 -24 29 -30 46 -29 76 1 27 -5 44 -20 60
-21 20 -23 20 -57 4 -19 -9 -35 -21 -35 -27 0 -5 -19 -22 -42 -36 -52 -33 -59
-43 -47 -65 14 -28 11 -37 -18 -51 -25 -12 -28 -19 -30 -68 -3 -69 14 -90 72
-90 24 0 58 -6 76 -14 19 -8 66 -17 104 -21 73 -8 115 -31 115 -65 0 -23 -42
-60 -67 -60 -22 0 -47 -23 -36 -33 8 -8 -17 -57 -28 -57 -5 0 -6 6 -4 13 3 7
-5 19 -17 27 -12 8 -38 30 -58 48 -27 23 -47 32 -72 32 -37 0 -65 23 -89 74
-8 16 -23 35 -34 42 -18 12 -27 8 -84 -39 -48 -38 -67 -61 -74 -87 -5 -19 -13
-40 -18 -47 -20 -23 19 -166 48 -177 9 -4 34 3 57 16 37 19 67 25 176 30 74 4
104 -18 105 -77 0 -16 7 -20 30 -20 23 0 34 -7 47 -32 10 -17 27 -34 38 -38
11 -3 20 -12 20 -19 0 -7 11 -25 25 -40 22 -23 27 -25 52 -14 15 6 39 22 53
34 22 19 49 29 72 25 4 0 -4 -13 -18 -27 -21 -24 -24 -34 -20 -85 3 -42 0 -62
-11 -70 -7 -7 -12 -18 -9 -24 2 -7 -3 -25 -11 -41 -10 -19 -17 -57 -17 -106
-2 -97 -12 -111 -62 -83 -48 26 -95 112 -100 180 -2 28 -8 85 -13 128 -6 43
-7 85 -4 94 5 14 1 13 -24 -5 -17 -12 -36 -22 -43 -22 -6 0 -2 -11 9 -26 24
-30 28 -91 8 -117 -33 -46 -177 -23 -209 33 -21 37 -62 49 -88 25 -11 -10 -20
-24 -20 -30 0 -7 -10 -25 -22 -40 -17 -21 -22 -42 -23 -91 0 -35 -4 -66 -7
-70 -4 -3 2 -24 13 -45 17 -34 24 -39 53 -39 18 0 45 -9 59 -20 29 -23 58 -25
87 -8 25 16 35 5 32 -39 -4 -54 -17 -66 -53 -48 -40 21 -76 19 -84 -4 -3 -10
-8 -48 -10 -82 -3 -48 0 -68 12 -81 10 -11 13 -26 9 -41 -4 -18 1 -32 18 -50
21 -22 26 -41 31 -116 7 -83 9 -90 31 -95 13 -4 25 -14 26 -24 0 -9 2 -21 3
-27 2 -5 3 -16 4 -22 0 -7 7 -13 14 -13 6 0 32 -16 57 -36 61 -48 88 -44 118
19 18 39 27 48 45 45 15 -2 24 -14 32 -40 6 -21 21 -45 34 -54 19 -13 22 -22
17 -48 -4 -17 -16 -38 -27 -47 -21 -15 -21 -17 -6 -83 8 -37 17 -69 19 -70 2
-1 16 -12 32 -24 16 -12 43 -22 60 -22 18 0 50 -13 75 -30 24 -17 52 -30 62
-30 27 0 53 44 45 78 -20 80 -21 78 27 111 55 38 100 41 121 8 8 -12 36 -31
60 -42 52 -23 57 -37 22 -60 -13 -9 -26 -25 -29 -36 -5 -17 -11 -20 -36 -14
-21 4 -40 1 -61 -11 -43 -26 -41 -64 5 -101 25 -20 35 -36 35 -57 0 -28 1 -28
40 -23 27 3 43 1 51 -9 17 -20 14 -62 -5 -83 -25 -28 -19 -55 24 -107 22 -27
40 -52 40 -56 0 -5 15 -8 34 -8 22 0 38 -7 47 -20 13 -18 20 -19 78 -10 35 5
68 13 73 18 5 5 13 44 17 86 11 115 47 134 125 66 19 -17 38 -30 43 -29 45 8
42 -58 -5 -101 -18 -16 -32 -38 -32 -49 0 -27 127 -124 149 -115 39 16 53 15
72 -2 15 -13 22 -15 31 -6 7 7 22 12 35 12 15 0 28 10 39 32 14 26 16 57 13
182 l-4 151 28 3 c22 3 30 -1 34 -17 12 -45 63 -4 63 51 0 10 5 18 10 18 6 0
10 -9 10 -19 0 -10 7 -22 16 -25 26 -10 72 -7 80 6 5 7 10 4 16 -11 6 -16 3
-30 -11 -49 -35 -51 -71 -131 -71 -161 0 -17 -11 -42 -26 -60 -27 -33 -29 -59
-4 -71 8 -4 36 -17 61 -29 33 -16 51 -19 69 -13 15 5 35 5 52 -2 21 -8 33 -7
46 2 9 7 28 16 42 22 97 38 101 58 24 126 l-59 52 12 44 c11 41 10 44 -13 63
-14 11 -30 31 -37 45 -9 18 -23 26 -47 29 -35 5 -35 5 10 10 40 5 47 10 64 45
l19 39 -29 21 c-54 39 -64 54 -64 98 0 32 6 49 27 70 31 32 18 38 -20 8 -14
-11 -30 -20 -35 -20 -16 0 -20 69 -5 82 7 6 13 22 13 36 0 23 -1 24 -18 9 -16
-15 -20 -14 -45 18 -15 19 -27 42 -27 52 0 24 -17 49 -26 40 -4 -4 -2 -13 4
-19 16 -16 15 -43 -3 -58 -12 -10 -22 -8 -55 8 -41 20 -50 17 -64 -22 -5 -16
-9 -16 -23 -5 -15 13 -15 14 0 17 14 3 15 7 6 25 -7 12 -13 24 -15 26 -4 4
-76 -50 -91 -69 -10 -12 -15 -13 -32 -3 -25 15 -101 17 -101 3 0 -5 -14 -10
-31 -10 -32 0 -32 1 -13 -46 3 -5 -7 -16 -21 -24 -22 -12 -27 -11 -38 5 -12
15 -20 16 -53 8 -43 -10 -89 3 -154 43 -19 11 -57 24 -83 28 -43 7 -48 11 -54
37 -3 19 -12 29 -23 29 -31 0 -75 -29 -80 -52 -3 -13 -12 -23 -20 -23 -11 0
-15 15 -16 60 -1 33 -2 73 -3 88 -2 43 -29 46 -61 7 -41 -50 -61 -37 -59 37 1
32 7 65 12 74 6 9 7 24 4 33 -6 16 -9 16 -22 2 -8 -8 -12 -22 -9 -30 7 -19 -7
-21 -24 -4 -16 16 -122 -39 -122 -64 0 -18 -33 -42 -44 -31 -15 15 -5 55 14
60 23 6 23 7 11 31 -56 114 -100 213 -105 239 -4 17 -14 37 -22 44 -21 17 -17
33 14 47 23 11 29 10 39 -5 14 -18 20 -15 37 19 18 35 40 29 44 -12 3 -32 15
-49 35 -50 4 0 7 6 7 14 0 48 68 -1 97 -69 16 -41 39 -63 51 -51 8 8 -19 70
-37 84 -11 9 -16 28 -14 63 2 94 43 93 70 -1 18 -61 34 -74 52 -43 5 10 13 15
17 11 4 -4 2 -14 -4 -21 -9 -10 -8 -18 3 -33 14 -18 14 -18 15 5 0 14 9 34 19
45 11 12 23 33 26 49 6 22 4 27 -11 27 -11 0 -31 15 -46 34 -19 23 -22 33 -12
32 19 -1 49 47 41 68 -4 9 -13 16 -22 16 -12 0 -14 -4 -5 -19 6 -12 6 -22 1
-26 -5 -3 -12 4 -16 15 -8 24 -50 54 -64 45 -15 -9 -51 32 -51 59 0 13 -7 29
-15 36 -21 17 -31 80 -15 90 9 6 14 36 16 90 2 45 5 84 8 87 3 3 10 -7 16 -23
6 -16 15 -38 20 -49 5 -11 9 -29 9 -40 -1 -33 28 -99 51 -114 19 -13 22 -12
27 7 3 12 9 22 14 22 5 0 9 11 9 24 0 14 4 28 10 31 18 11 11 43 -12 49 -33 9
-75 44 -63 53 38 29 62 143 31 143 -8 0 -17 -6 -20 -12 -3 -7 -3 -2 0 12 4 13
13 30 20 38 8 7 14 18 14 25 0 6 10 21 21 34 18 19 20 25 9 38 -11 13 -10 19
5 35 10 11 26 20 35 20 23 0 45 26 30 35 -5 3 -10 16 -9 28 0 12 3 16 6 10 8
-22 23 -14 23 11 0 32 25 53 44 37 8 -7 12 -22 10 -34 -4 -18 -3 -19 4 -4 4
10 12 18 17 18 11 -1 11 4 0 37 -5 14 -15 22 -31 22 -13 0 -24 4 -24 9 0 11
45 21 80 17 32 -3 40 -35 11 -43 -12 -3 -21 -9 -21 -14 0 -17 21 -9 46 18 17
18 28 23 32 16 4 -6 16 -11 27 -10 12 1 20 -4 20 -13 0 -10 -10 -15 -32 -15
-30 0 -31 -1 -19 -20 7 -11 16 -19 20 -17 3 1 14 2 24 2 9 0 26 13 36 29 l20
29 13 -25 c15 -30 15 -31 -16 -36 -12 -2 -26 -9 -31 -17 -4 -7 -13 -9 -20 -5
-7 4 -25 -8 -45 -31 -24 -27 -31 -41 -22 -46 6 -4 20 2 30 13 14 15 22 18 30
10 8 -8 18 -2 37 20 18 23 36 32 63 35 35 3 57 -9 38 -20 -5 -4 -12 -2 -16 4
-7 12 -25 4 -25 -11 0 -17 40 -9 71 13 28 21 30 21 47 4 16 -18 16 -18 -5 -7
-19 10 -23 9 -23 -4 0 -9 -13 -28 -30 -41 -16 -14 -29 -28 -29 -32 3 -19 -3
-22 -22 -11 -14 7 -19 7 -15 0 8 -13 -15 -51 -31 -51 -7 0 -13 -4 -13 -10 0
-17 -30 1 -30 19 -1 14 -2 14 -11 -1 -7 -13 -5 -23 8 -38 21 -24 33 -26 33 -5
0 17 36 39 55 31 7 -2 15 4 18 14 3 10 18 21 36 25 24 5 33 13 37 35 7 34 48
60 66 42 7 -7 21 -12 33 -12 15 0 17 -2 6 -9 -11 -7 -11 -9 0 -14 11 -4 11 -8
2 -14 -6 -5 -14 -28 -17 -52 -3 -23 -10 -49 -16 -56 -6 -8 -7 -16 -2 -19 15
-9 1 -55 -19 -61 -11 -4 -24 -15 -29 -26 -9 -15 -15 -17 -30 -9 -11 6 -20 17
-20 25 0 8 -4 15 -9 15 -5 0 -7 -9 -4 -20 3 -11 -2 -27 -13 -37 -17 -17 -17
-18 2 -22 10 -2 21 -7 25 -12 3 -5 19 -5 37 0 27 8 32 7 32 -8 0 -12 -7 -17
-22 -16 -13 2 -33 -3 -45 -11 -18 -11 -23 -11 -33 1 -10 12 -16 13 -27 4 -8
-7 -12 -18 -9 -25 3 -7 0 -11 -7 -8 -12 4 -14 10 -19 66 -2 15 -9 33 -16 40
-11 11 -17 9 -32 -10 -18 -22 -19 -22 -59 -5 -36 15 -39 20 -34 45 5 28 5 28
-21 17 -19 -9 -23 -15 -15 -25 16 -19 -4 -28 -73 -33 -10 0 -18 -9 -18 -18 0
-11 3 -14 8 -7 10 16 52 28 52 15 0 -5 -5 -13 -11 -16 -6 -4 -8 -13 -5 -21 3
-8 1 -14 -4 -14 -6 0 -10 -5 -10 -11 0 -6 6 -9 14 -6 8 3 17 -1 20 -9 10 -27
6 -35 -14 -29 -11 4 -20 2 -20 -4 0 -20 -16 -12 -30 15 -12 22 -12 27 0 34 13
8 13 11 -1 25 -14 15 -17 15 -29 -1 -12 -14 -12 -20 3 -46 22 -38 14 -49 -12
-17 -23 27 -27 55 -8 63 9 3 8 8 -4 18 -25 21 -39 53 -29 68 7 11 10 8 15 -11
8 -31 46 -59 43 -32 -3 37 2 53 17 53 9 0 20 11 26 24 6 13 21 29 33 34 11 6
15 11 8 11 -22 1 -52 -19 -52 -34 0 -8 -3 -15 -7 -15 -14 1 -43 27 -43 39 0 6
-4 11 -10 11 -5 0 -10 12 -9 28 1 26 2 25 16 -10 18 -42 28 -48 36 -18 9 33
-3 55 -34 67 -24 9 -29 17 -29 45 0 22 -3 29 -9 19 -5 -7 -6 -25 -2 -39 5 -19
2 -31 -12 -45 -15 -15 -17 -29 -14 -80 4 -66 -7 -127 -24 -127 -12 0 -1 -43
12 -48 5 -2 18 -11 30 -20 17 -15 19 -21 9 -46 -7 -20 -8 -32 0 -40 15 -15 12
-26 -9 -26 -32 0 -33 -27 0 -39 17 -6 29 -17 29 -28 1 -23 19 -46 47 -61 24
-13 36 -4 22 18 -5 8 -9 23 -9 34 0 10 -13 35 -30 56 -30 38 -39 83 -20 95 6
3 10 -1 10 -11 0 -26 40 -84 58 -84 15 0 15 -2 2 -10 -16 -11 -14 -13 30 -39
10 -7 11 -12 3 -23 -6 -7 -13 -29 -15 -48 -3 -32 -6 -35 -36 -38 -24 -2 -38 2
-47 15 -7 10 -17 15 -21 11 -7 -8 52 -68 66 -68 13 0 18 -49 5 -54 -14 -5 -35
12 -35 30 0 15 -25 36 -33 28 -3 -3 -1 -14 6 -25 15 -24 2 -36 -19 -18 -16 13
-17 12 -12 -8 3 -12 1 -24 -6 -27 -6 -3 3 -3 20 0 40 6 64 -18 46 -47 -17 -27
-15 -41 6 -35 13 4 18 0 19 -15 2 -17 -3 -20 -22 -17 -19 4 -24 0 -28 -21 -3
-17 1 -32 12 -42 22 -20 68 -32 76 -19 4 6 20 -6 38 -27 57 -65 76 -83 92 -83
25 0 17 34 -16 68 -18 18 -29 35 -27 38 8 7 35 -22 64 -68 20 -31 23 -43 13
-54 -6 -7 -9 -21 -5 -30 3 -8 -1 -28 -9 -44 -8 -16 -15 -40 -15 -55 0 -14 -4
-25 -8 -25 -5 0 -24 -14 -42 -30 l-34 -30 27 -28 c15 -15 27 -34 27 -41 0 -7
5 -9 13 -4 30 19 47 13 47 -16 0 -36 19 -50 35 -28 7 10 19 17 28 17 11 0 15
9 15 30 -1 17 4 36 10 42 9 9 12 8 12 -5 0 -10 8 -17 18 -17 10 0 24 -6 31
-12 10 -11 11 -9 5 6 -6 16 -3 18 22 13 16 -2 55 -12 87 -21 75 -21 74 -21 85
12 6 15 11 21 11 14 1 -10 6 -10 21 -2 16 9 22 8 26 -5 4 -9 2 -21 -5 -28 -15
-15 -14 -27 3 -27 7 0 19 14 26 30 15 36 20 110 7 110 -5 0 -6 12 -2 28 l7 27
-27 -25 c-21 -19 -24 -30 -19 -54 5 -24 3 -28 -10 -23 -9 4 -16 2 -16 -3 0 -6
-4 -10 -10 -10 -5 0 -10 6 -10 14 0 8 -11 27 -24 43 -27 33 -42 73 -27 73 6 0
11 -7 11 -17 0 -9 3 -13 7 -10 3 4 14 0 23 -8 16 -14 19 -14 32 7 8 13 18 35
22 51 9 38 30 35 23 -3 -7 -35 -1 -37 30 -11 17 14 23 31 25 65 1 37 5 46 20
46 10 0 18 -4 18 -10 0 -19 21 -10 29 12 l8 22 11 -21 c9 -16 8 -24 -7 -37 -9
-9 -25 -16 -34 -16 -10 0 -17 -8 -17 -19 0 -11 -12 -33 -26 -50 l-26 -31 22
-35 c12 -19 29 -35 37 -35 13 0 13 3 3 15 -9 11 -10 19 -3 26 8 8 15 5 23 -11
8 -15 19 -21 38 -19 15 2 32 0 38 -4 11 -6 34 32 34 58 0 12 4 12 28 -1 24
-12 27 -12 31 3 2 9 -7 25 -19 35 -20 16 -21 22 -11 44 16 35 15 36 -18 29
-27 -6 -29 -5 -26 27 2 18 3 36 4 40 1 4 17 4 36 1 35 -6 40 -1 36 33 -1 7 11
17 26 23 16 6 39 18 53 27 14 9 10 5 -7 -10 -18 -15 -33 -33 -33 -39 0 -7 -9
-18 -20 -25 -20 -12 -28 -42 -12 -42 5 0 18 9 30 20 12 11 24 20 28 20 4 0 12
7 19 16 9 13 16 14 31 6 18 -11 17 -11 -6 -13 -17 -1 -20 -3 -7 -6 9 -2 17 -9
17 -14 0 -6 6 -7 13 -2 6 4 16 8 22 8 17 0 29 76 16 97 -10 17 -8 23 14 42
l26 23 -30 -5 c-17 -2 -31 -10 -31 -18 0 -8 -6 -11 -15 -8 -9 4 -15 0 -15 -7
-1 -8 -7 1 -15 19 -8 18 -12 39 -9 47 4 9 -5 19 -27 27 -28 12 -30 15 -17 28
8 8 17 23 21 33 3 9 11 17 17 17 14 0 7 -40 -9 -50 -9 -5 -10 -10 -2 -14 6 -4
11 -2 11 4 0 6 4 9 9 6 16 -10 71 6 71 20 0 17 37 42 80 54 27 8 30 7 20 -5
-7 -8 -20 -15 -29 -15 -22 0 -41 -19 -41 -41 0 -31 22 -33 46 -6 15 18 25 23
30 15 4 -6 -4 -21 -20 -35 -23 -19 -25 -26 -16 -44 7 -12 17 -18 27 -15 8 3
21 6 28 6 8 0 15 10 17 23 2 15 9 21 22 20 27 -2 56 37 49 66 -5 19 -3 22 8
15 8 -5 22 -7 33 -5 17 3 17 1 -3 -27 -40 -57 -14 -74 31 -20 15 18 30 29 35
24 4 -5 2 -11 -4 -13 -18 -6 -16 -23 2 -23 8 0 15 -4 15 -10 0 -5 -9 -10 -19
-10 -11 0 -23 -4 -26 -10 -3 -5 -16 -10 -28 -10 -18 0 -22 -5 -21 -27 2 -43 3
-46 17 -35 9 8 22 3 47 -18 34 -28 35 -28 60 -11 43 31 70 33 80 6 7 -17 14
-22 30 -18 13 3 19 11 16 19 -5 14 10 19 50 15 12 -1 26 5 33 12 8 10 28 13
69 10 53 -4 59 -2 69 19 9 20 7 26 -14 42 -18 13 -28 15 -36 7 -15 -15 -27
-14 -27 2 0 14 34 15 63 2 27 -12 35 5 10 22 -13 9 -23 22 -23 30 0 11 -7 14
-25 11 -31 -6 -37 2 -40 54 -4 47 -19 68 -51 68 -12 0 -26 5 -30 11 -3 6 1 10
12 9 35 -4 54 0 54 10 0 6 -8 10 -17 8 -12 -2 -21 8 -29 32 -11 33 -14 35 -50
32 -22 -2 -42 -10 -46 -17 -14 -23 -58 5 -55 35 2 20 -2 24 -18 22 -11 -2 -25
-10 -32 -19 -11 -14 -16 -12 -44 15 -20 19 -29 37 -26 46 4 11 1 16 -12 16
-17 0 -19 4 -22 55 -1 14 -6 25 -11 25 -5 0 -6 4 -3 10 4 6 -5 8 -22 4 -36 -7
-61 26 -38 50 17 16 20 56 5 56 -6 0 -6 9 0 25 13 33 5 32 -29 -5 l-27 -30
-22 20 c-29 27 -28 40 4 40 22 0 24 3 19 23 -4 13 -3 17 2 10 5 -7 19 -10 31
-6 25 6 30 23 7 23 -8 0 -15 2 -15 5 0 17 43 87 60 97 11 7 20 21 20 31 0 33
39 97 60 97 24 0 31 -12 19 -30 -5 -8 -9 -11 -9 -6 0 5 -9 1 -20 -9 -12 -11
-20 -31 -20 -52 0 -35 -29 -73 -55 -73 -8 0 -15 -7 -15 -15 0 -23 24 -95 32
-95 3 0 21 22 39 50 18 28 39 50 46 50 8 0 11 5 8 10 -3 6 3 10 14 10 23 0 27
14 30 93 1 38 -2 57 -10 57 -6 0 -9 8 -6 20 3 11 1 23 -4 26 -16 10 -10 36 10
41 23 6 37 33 17 33 -7 0 -16 -3 -20 -7 -4 -4 -13 -8 -19 -9 -7 0 -20 -2 -29
-2 -10 -1 -18 -10 -18 -20 0 -19 -34 -62 -49 -62 -5 0 -7 9 -4 20 6 22 -20 29
-33 9 -3 -6 -15 -9 -25 -6 -10 3 -26 -1 -35 -8 -17 -12 -17 -14 0 -40 10 -16
15 -36 12 -49 -3 -13 -1 -38 4 -57 9 -28 7 -37 -7 -49 -10 -8 -17 -25 -15 -37
3 -18 -2 -23 -18 -23 -17 0 -20 4 -15 18 5 9 8 25 9 35 0 9 6 17 13 17 7 0 13
4 13 9 0 5 -11 9 -25 9 -14 0 -35 8 -47 18 -15 14 -22 16 -25 6 -6 -17 -23 -5
-23 17 0 10 -9 26 -20 36 -21 19 -26 35 -12 35 5 0 15 -11 22 -25 12 -22 67
-65 83 -65 3 0 3 9 0 20 -3 11 0 20 6 20 6 0 11 -7 11 -15 0 -8 4 -15 9 -15
13 0 8 70 -6 95 -6 11 -10 25 -10 30 1 6 -13 15 -31 21 -19 6 -38 17 -44 25
-8 11 -9 11 -5 -3 6 -17 -21 -48 -41 -48 -7 0 -12 -6 -12 -14 0 -25 -26 -39
-42 -22 -13 12 -16 11 -26 -5 -7 -10 -19 -19 -28 -19 -10 0 -14 -6 -11 -15 4
-8 2 -17 -3 -20 -6 -4 -10 -1 -10 5 0 7 -6 8 -19 0 -31 -16 -41 -12 -41 15 0
14 -7 28 -15 32 -24 9 -32 -7 -12 -22 16 -11 14 -13 -18 -17 -24 -3 -35 0 -35
9 0 7 -5 13 -11 13 -6 0 -4 7 5 15 8 8 24 27 35 41 26 33 54 26 45 -11 -3 -14
-2 -25 3 -25 12 0 38 29 46 53 7 19 57 24 57 6 0 -13 60 -2 75 13 7 7 3 8 -12
3 -18 -5 -23 -2 -23 11 0 16 -1 16 -14 -1 -13 -19 -15 -18 -29 15 -9 19 -16
30 -16 23 -1 -6 -10 -9 -21 -6 -14 4 -22 -1 -29 -20 -13 -34 -28 -41 -34 -17
-6 23 -37 17 -37 -6 0 -8 -4 -14 -8 -14 -12 0 -42 34 -42 48 0 16 15 15 29 -2
11 -13 17 -12 46 5 18 11 35 29 38 41 6 21 7 21 27 3 11 -10 20 -13 20 -7 0 7
-5 12 -12 12 -9 0 -9 3 -1 11 17 17 43 3 43 -23 0 -16 3 -19 11 -11 14 14 -19
75 -35 66 -6 -3 -6 0 1 7 10 10 8 19 -8 42 -11 15 -24 28 -28 28 -13 0 -10
-41 5 -47 23 -8 18 -53 -6 -53 -11 0 -20 4 -20 9 0 12 -39 25 -48 17 -3 -4 4
-13 16 -22 12 -8 22 -22 22 -30 0 -23 -26 -16 -44 11 -22 33 -35 32 -42 -5 -7
-30 -34 -43 -34 -15 0 8 -7 15 -15 15 -8 0 -15 -4 -15 -10 0 -24 -22 -7 -36
29 -8 22 -23 42 -31 45 -14 6 -14 8 0 24 9 11 15 34 14 62 l-2 45 -46 0 c-33
0 -45 4 -42 13 3 6 1 12 -5 12 -15 0 -26 89 -13 104 6 8 9 20 6 27 -6 16 37
39 73 39 33 0 23 23 -16 34 -18 5 -32 13 -32 17 0 5 -7 9 -15 9 -8 0 -15 -5
-15 -11 0 -5 -4 -7 -10 -4 -6 4 -5 13 3 26 10 16 9 21 -3 29 -12 7 -12 12 -1
34 12 21 11 27 -3 41 -9 9 -16 22 -16 29 0 8 -7 19 -15 26 -12 10 -13 16 -4
26 7 8 13 34 15 58 4 43 3 45 -32 56 -34 11 -37 10 -66 -19 -29 -30 -31 -30
-54 -13 -13 9 -24 20 -24 25 0 17 73 113 96 125 13 7 24 17 24 23 0 6 9 22 20
36 11 14 20 32 20 39 0 20 -42 84 -77 117 -37 34 -40 48 -18 67 8 7 15 24 15
37 0 14 9 32 19 41 11 10 22 31 26 49 8 41 -19 57 -84 50 -32 -4 -51 -1 -62 9
-21 19 -43 10 -59 -24 l-12 -27 -19 24 c-10 13 -19 36 -19 53 0 35 -45 82 -69
72 -20 -8 -32 -8 -52 0 -10 4 -21 2 -25 -6z m167 -891 c-10 -9 -11 -8 -5 6 3
10 9 15 12 12 3 -3 0 -11 -7 -18z m89 -27 c0 -5 -5 -10 -11 -10 -5 0 -7 5 -4
10 3 6 8 10 11 10 2 0 4 -4 4 -10z m170 -30 c0 -5 -2 -10 -4 -10 -3 0 -8 5
-11 10 -3 6 -1 10 4 10 6 0 11 -4 11 -10z m74 -89 c3 -5 -3 -11 -14 -14 -20
-5 -26 3 -13 16 9 10 21 9 27 -2z m-869 -91 c-10 -11 -21 -17 -24 -14 -3 3 3
12 13 20 28 20 32 17 11 -6z m410 -70 c3 -5 0 -10 -8 -10 -8 0 -17 -10 -20
-22 -4 -12 -9 -19 -13 -16 -3 4 -4 19 0 33 6 25 29 34 41 15z m115 -60 c18 12
30 13 30 2 0 -4 -18 -13 -40 -19 -22 -5 -40 -9 -40 -7 0 18 14 33 24 25 7 -6
17 -6 26 -1z m-70 -34 c0 -2 -7 -6 -15 -10 -8 -3 -15 -1 -15 4 0 6 7 10 15 10
8 0 15 -2 15 -4z m-90 -21 c-7 -9 -15 -13 -19 -10 -3 3 1 10 9 15 21 14 24 12
10 -5z m100 -20 c-12 -13 -26 -22 -30 -20 -4 3 -13 -2 -20 -10 -7 -8 -18 -15
-26 -15 -7 0 -17 -7 -22 -16 -5 -9 -17 -14 -28 -11 -17 4 -17 5 4 12 27 9 29
35 3 35 -11 0 -23 4 -26 10 -4 6 10 8 38 4 27 -4 47 -2 51 4 4 6 13 9 20 6 7
-3 19 2 26 11 7 8 17 15 23 15 6 0 0 -11 -13 -25z m-500 6 c0 -5 -3 -17 -6
-25 -5 -13 -9 -14 -20 -5 -16 13 -19 33 -4 24 6 -3 10 -1 10 4 0 6 5 11 10 11
6 0 10 -4 10 -9z m944 -46 c11 -8 15 -15 10 -15 -6 0 -19 7 -30 15 -10 8 -14
14 -9 14 6 0 19 -6 29 -14z m-454 -24 c0 -4 -6 -15 -12 -24 -10 -13 -20 -15
-42 -9 l-29 8 27 21 c25 20 56 22 56 4z m249 -33 c-6 -10 -14 -16 -20 -13 -13
8 -11 23 4 39 16 19 29 -2 16 -26z m-771 15 c-24 -49 -33 -63 -40 -63 -4 0 -4
8 1 18 5 9 12 25 15 35 3 9 10 17 17 17 6 0 9 -3 7 -7z m582 -38 c0 -8 -2 -15
-4 -15 -2 0 -6 7 -10 15 -3 8 -1 15 4 15 6 0 10 -7 10 -15z m192 -17 c-7 -7
-12 -8 -12 -2 0 14 12 26 19 19 2 -3 -1 -11 -7 -17z m169 -15 c13 -16 12 -17
-3 -4 -10 7 -18 15 -18 17 0 8 8 3 21 -13z m93 -19 c3 -8 2 -12 -4 -9 -6 3
-10 10 -10 16 0 14 7 11 14 -7z m-886 -10 c12 -4 22 -10 22 -15 0 -5 -7 -6
-15 -3 -10 4 -15 0 -15 -11 0 -24 -24 -13 -28 13 -4 23 0 25 36 16z m92 -15
c0 -6 -4 -7 -10 -4 -5 3 -10 11 -10 16 0 6 5 7 10 4 6 -3 10 -11 10 -16z m891
-26 c6 -17 5 -23 -6 -23 -8 0 -15 7 -15 16 0 10 -6 14 -15 10 -15 -6 -20 5 -8
18 13 12 36 1 44 -21z m-835 -31 c-8 -16 -12 -33 -8 -38 4 -5 -1 -2 -11 5 -17
13 -17 15 3 36 11 12 20 28 21 36 0 9 2 10 5 2 3 -6 -2 -25 -10 -41z m-686 23
c-7 -9 -15 -13 -19 -10 -3 3 1 10 9 15 21 14 24 12 10 -5z m2030 -16 c-12 -22
-30 -25 -30 -6 0 17 21 38 32 31 4 -3 3 -14 -2 -25z m-1505 -19 c15 -6 23 -15
19 -21 -4 -8 -9 -8 -17 0 -6 6 -19 11 -29 11 -10 0 -18 5 -18 10 0 13 12 13
45 0z m108 -46 c4 -23 3 -24 -10 -11 -9 8 -12 20 -9 26 10 16 13 14 19 -15z
m1537 -4 c0 -11 -9 -24 -19 -30 -35 -18 -42 -10 -19 24 24 36 38 38 38 6z
m-146 -9 c3 -5 -1 -11 -9 -14 -9 -4 -12 -1 -8 9 6 16 10 17 17 5z m-1500 -23
c-4 -7 -12 -19 -17 -26 -16 -20 -17 -60 -2 -66 7 -2 13 -20 13 -40 0 -26 -4
-33 -15 -29 -8 3 -27 -7 -44 -23 -34 -33 -39 -74 -9 -74 21 0 28 -24 10 -35
-5 -3 -10 -18 -10 -32 0 -21 -2 -23 -15 -13 -12 10 -15 7 -21 -15 -4 -15 -2
-31 5 -38 6 -6 11 -26 11 -44 0 -42 -29 -45 -59 -7 -26 34 -27 60 -1 74 17 9
19 17 13 58 -3 26 -9 51 -14 56 -12 13 1 37 37 68 32 29 32 29 18 65 -15 36
-9 52 20 53 17 0 46 33 46 51 0 16 12 26 33 28 5 1 5 -5 1 -11z m1004 0 c-7
-20 -48 -23 -48 -4 0 11 9 16 26 16 16 0 24 -5 22 -12z m52 -36 c3 -2 -2 -3
-10 0 -28 9 -54 -34 -39 -64 14 -26 -10 -33 -32 -9 -19 21 -19 21 7 61 23 35
29 38 48 28 11 -6 23 -13 26 -16z m-1004 -22 c-4 -25 -2 -40 4 -40 5 0 10 -5
10 -11 0 -8 -4 -9 -13 0 -8 6 -17 8 -20 4 -4 -3 -7 3 -7 15 0 11 5 24 10 27 6
3 10 15 10 26 0 10 3 19 6 19 4 0 4 -18 0 -40z m710 27 c4 -4 -5 -7 -20 -7
-15 0 -25 4 -22 9 7 10 31 9 42 -2z m559 -25 c-3 -3 -11 0 -18 7 -9 10 -8 11
6 5 10 -3 15 -9 12 -12z m-1469 -18 c-3 -7 1 -20 9 -28 19 -19 19 -36 0 -36
-21 0 -47 61 -33 77 13 16 31 6 24 -13z m1039 16 c3 -5 -3 -10 -14 -10 -12 0
-21 5 -21 10 0 6 6 10 14 10 8 0 18 -4 21 -10z m-150 -31 c-4 -5 -13 -9 -22
-9 -13 0 -13 3 -3 15 13 15 35 11 25 -6z m635 -51 c0 -6 -6 -5 -15 2 -8 7 -15
14 -15 16 0 2 7 1 15 -2 8 -4 15 -11 15 -16z m-1535 -45 c4 -15 2 -23 -5 -23
-7 0 -9 -7 -6 -16 4 -11 1 -14 -12 -12 -17 3 -33 69 -24 98 6 16 37 -16 47
-47z m1203 27 c17 -7 32 -17 32 -23 0 -6 7 -2 15 9 14 19 15 19 21 -3 3 -11
14 -23 24 -26 13 -3 17 -11 13 -25 -2 -11 0 -23 6 -26 16 -10 13 -32 -5 -51
-13 -13 -14 -21 -6 -41 7 -13 19 -24 29 -24 16 0 16 1 -1 13 -16 12 -16 14 5
32 15 14 23 16 26 8 3 -8 15 -3 34 14 26 24 27 27 11 39 -9 7 -29 10 -44 7
-27 -5 -41 11 -16 19 11 4 97 -11 107 -18 2 -2 4 -13 5 -25 1 -22 26 -41 26
-20 0 5 14 2 31 -7 29 -16 31 -16 48 5 l19 23 36 -33 c20 -19 36 -39 36 -45 0
-7 5 -12 10 -12 6 0 10 7 10 15 0 22 17 19 23 -4 3 -14 -2 -21 -16 -25 l-21
-5 22 -24 c29 -30 28 -47 -2 -47 -26 0 -43 30 -30 51 4 7 1 10 -7 7 -8 -3 -14
-16 -14 -29 0 -27 -30 -38 -49 -19 -8 8 -7 14 7 21 9 6 17 14 17 19 0 15 -26
12 -40 -5 -10 -12 -17 -12 -34 -3 -11 6 -22 11 -23 10 -2 -1 -10 1 -18 4 -8 4
-21 1 -29 -5 -7 -6 -21 -8 -30 -5 -16 6 -16 8 0 25 10 11 25 17 35 14 9 -3 24
1 32 10 14 13 16 13 19 -7 2 -12 8 -23 14 -25 15 -5 24 46 10 55 -16 10 -69
10 -83 -1 -9 -6 -19 -5 -29 4 -15 12 -18 11 -28 -5 -22 -39 -60 -67 -82 -62
-22 6 -45 -13 -57 -47 -7 -19 -28 -19 -34 -1 -2 6 14 28 34 49 22 22 30 35 20
32 -10 -4 -23 -7 -28 -7 -5 0 -8 -6 -6 -12 1 -8 -8 -13 -23 -13 -18 0 -25 5
-25 20 -1 11 -6 19 -13 18 -18 -4 -15 3 14 32 14 15 32 24 40 21 8 -3 14 -1
14 5 0 18 -29 21 -47 4 -14 -14 -18 -15 -22 -4 -2 8 -8 16 -12 19 -4 3 -4 12
1 20 8 12 13 13 30 2 17 -10 21 -10 27 3 3 9 12 14 19 11 17 -7 17 -5 -1 30
-15 28 -15 29 -21 7 -7 -26 -34 -32 -34 -8 0 24 -18 17 -22 -7 -3 -26 -38 -38
-38 -14 0 8 -7 22 -16 30 -14 15 -13 17 12 26 18 7 30 7 39 0 9 -7 15 -7 19
-1 8 13 -3 19 -53 27 -32 5 -39 9 -31 19 11 14 25 11 98 -15z m-134 14 c24 -9
19 -21 -14 -33 -32 -11 -42 3 -18 27 14 14 12 14 32 6z m-74 -24 c0 -5 -4 -10
-10 -10 -5 0 -10 5 -10 10 0 6 5 10 10 10 6 0 10 -4 10 -10z m-786 -70 l7 -45
-19 40 c-10 22 -16 48 -14 59 7 26 18 3 26 -54z m1306 60 c-20 -13 -33 -13
-25 0 3 6 14 10 23 10 15 0 15 -2 2 -10z m-647 -25 c7 -18 -6 -27 -27 -19 -19
7 -21 20 -3 27 20 9 25 8 30 -8z m593 0 c-11 -8 -22 -12 -25 -9 -6 6 19 24 34
24 6 -1 1 -7 -9 -15z m-463 -20 c-3 -9 -8 -14 -10 -11 -3 3 -2 9 2 15 9 16 15
13 8 -4z m68 -30 c-16 -5 -33 -13 -37 -17 -4 -5 -14 -8 -22 -8 -12 0 -12 4 3
20 10 11 24 20 30 20 7 0 16 8 20 18 6 16 7 16 21 -3 14 -18 12 -20 -15 -30z
m555 -1 c-5 -14 -9 -15 -19 -5 -9 9 -9 14 3 21 18 11 24 6 16 -16z m-971 -25
c6 -6 -4 -7 -25 -3 -50 8 -60 12 -60 23 0 11 69 -6 85 -20z m500 -15 c14 -9
21 -22 18 -30 -7 -18 -23 -18 -23 1 0 12 -6 11 -35 -5 -37 -21 -85 -27 -85
-10 0 5 7 7 15 4 8 -4 17 1 21 10 4 11 13 14 30 10 20 -5 24 -2 24 15 0 25 4
26 35 5z m-150 -43 c3 -5 1 -12 -5 -16 -5 -3 -10 1 -10 9 0 18 6 21 15 7z
m-255 -11 c0 -5 -2 -10 -4 -10 -3 0 -8 5 -11 10 -3 6 -1 10 4 10 6 0 11 -4 11
-10z m30 -10 c0 -5 -2 -10 -4 -10 -3 0 -8 5 -11 10 -3 6 -1 10 4 10 6 0 11 -4
11 -10z m373 -15 c7 -15 -36 -55 -59 -55 -20 0 -17 8 14 40 31 33 38 36 45 15z
m-917 -9 c8 -8 14 -27 14 -42 0 -25 -2 -26 -14 -14 -16 16 -32 70 -21 70 3 0
13 -6 21 -14z m474 4 c0 -5 -2 -10 -4 -10 -3 0 -8 5 -11 10 -3 6 -1 10 4 10 6
0 11 -4 11 -10z m-277 -15 c11 -7 26 -11 34 -8 13 5 13 3 2 -15 -7 -11 -17
-18 -23 -15 -5 4 -7 -1 -3 -10 9 -25 -25 -22 -41 4 -12 19 -8 59 6 59 4 0 15
-7 25 -15z m751 -1 c25 -10 20 -53 -8 -63 -13 -5 -26 -16 -29 -24 -7 -19 21
-31 38 -17 9 7 15 8 19 1 7 -11 50 3 78 27 15 13 20 11 44 -17 15 -18 35 -31
49 -31 28 0 25 -29 -6 -48 -25 -16 -45 -6 -28 14 9 11 7 14 -10 14 -16 0 -21
-6 -21 -24 0 -15 -7 -27 -19 -31 -13 -4 -17 -12 -14 -26 5 -18 7 -18 31 7 15
14 28 21 30 15 2 -7 17 -1 34 14 23 19 33 23 44 15 19 -16 6 -42 -17 -35 -13
4 -19 1 -19 -9 0 -9 5 -16 10 -16 6 0 10 -6 10 -14 0 -9 12 -14 36 -14 19 0
38 -3 41 -6 4 -3 -10 -6 -30 -6 -20 0 -39 -4 -42 -10 -9 -15 -25 -12 -19 4 3
9 -4 19 -17 26 -20 11 -21 10 -17 -7 4 -13 -2 -24 -16 -33 -11 -7 -23 -12 -25
-11 -2 2 -7 -3 -12 -10 -6 -10 -13 -2 -24 24 -15 36 -18 38 -48 32 -18 -4 -38
-12 -44 -17 -9 -7 -13 -7 -13 2 0 6 9 14 20 17 17 4 17 7 5 19 -17 18 -9 45
13 42 21 -4 27 18 6 26 -10 4 -25 -3 -40 -19 -22 -24 -54 -34 -54 -17 0 15 25
62 33 62 5 0 5 5 2 10 -4 6 -13 3 -23 -9 -9 -11 -30 -21 -47 -23 -25 -3 -29 0
-27 17 4 27 58 101 71 98 6 -2 10 0 9 5 -2 8 20 52 27 52 2 0 10 -3 19 -6z
m146 -39 c0 -8 -7 -15 -15 -15 -26 0 -18 20 13 29 1 1 2 -6 2 -14z m190 -10
c0 -18 12 -19 27 -4 14 14 24 -3 13 -21 -7 -11 -14 -10 -44 4 -20 9 -34 21
-31 27 10 15 35 10 35 -6z m-580 -29 c0 -34 -14 -76 -24 -73 -14 5 -17 46 -5
70 11 20 29 23 29 3z m544 -18 c-3 -4 -26 -8 -50 -8 -52 0 -57 21 -8 30 30 6
66 -8 58 -22z m124 10 c-6 -18 -28 -21 -28 -4 0 9 7 16 16 16 9 0 14 -5 12
-12z m170 -15 c5 -18 -10 -16 -34 2 -18 15 -18 15 5 13 14 -2 26 -9 29 -15z
m-103 1 c14 -6 14 -8 -1 -25 -16 -18 -44 -26 -44 -13 0 8 20 44 25 44 2 0 11
-3 20 -6z m-150 -25 c4 -6 5 -12 2 -15 -7 -7 -37 7 -37 17 0 13 27 11 35 -2z
m223 -7 c2 -7 -5 -12 -17 -12 -14 0 -19 5 -14 15 6 17 25 15 31 -3z m-148 -33
c0 -5 -7 -9 -15 -9 -15 0 -20 12 -9 23 8 8 24 -1 24 -14z m-1020 -9 c0 -11 -2
-20 -4 -20 -2 0 -6 9 -9 20 -3 11 -1 20 4 20 5 0 9 -9 9 -20z m150 1 c0 -5 -8
-11 -17 -13 -16 -3 -15 -6 6 -27 19 -19 21 -25 10 -33 -11 -7 -11 -11 -1 -15
17 -7 15 -33 -3 -33 -17 0 -17 0 -20 53 -3 48 -8 52 -40 31 -23 -15 -25 -18
-10 -27 11 -6 15 -16 11 -32 -6 -24 13 -48 35 -43 8 2 15 -7 17 -20 5 -30 28
-22 25 9 -1 13 1 19 3 12 3 -7 22 -15 42 -19 20 -3 62 -15 92 -26 31 -11 56
-15 58 -10 4 12 40 4 67 -15 11 -7 30 -13 42 -13 13 0 23 -4 23 -10 0 -5 9
-10 20 -10 19 0 20 -1 5 -30 -8 -16 -14 -35 -13 -42 2 -7 -6 -13 -17 -13 -11
0 -30 -6 -42 -13 -12 -6 -29 -12 -38 -12 -8 0 -21 -11 -27 -25 -6 -14 -20 -25
-30 -25 -15 0 -17 5 -12 26 5 20 3 25 -7 22 -9 -3 -13 -16 -11 -34 l3 -29 -16
23 c-15 20 -24 23 -68 20 -48 -3 -51 -2 -58 26 -6 22 -4 32 8 41 17 13 10 35
-11 35 -7 0 -24 13 -39 28 -23 24 -26 34 -21 62 5 24 4 31 -5 26 -16 -10 -41
12 -41 36 0 11 -5 18 -12 16 -19 -7 -17 -50 4 -72 23 -25 23 -37 0 -43 -10 -2
-23 -12 -29 -22 -10 -16 -7 -18 40 -17 43 1 52 -2 55 -18 4 -17 -1 -18 -51
-13 -45 6 -56 4 -61 -9 -5 -13 -9 -14 -21 -4 -25 21 -19 -30 8 -58 19 -22 19
-24 4 -19 -11 4 -31 10 -45 13 -36 9 -52 23 -52 45 0 9 -6 24 -13 31 -23 23
-39 59 -33 74 3 8 0 24 -6 34 -10 15 -10 22 0 32 6 6 12 22 12 35 0 28 26 31
35 3 3 -11 13 -20 22 -20 8 0 20 -13 26 -30 9 -23 17 -30 39 -30 22 0 28 4 28
23 -1 27 -22 57 -42 57 -8 0 -17 3 -20 6 -7 6 39 54 51 54 10 0 65 25 101 45
29 17 40 19 40 6z m740 -6 c0 -8 -7 -15 -15 -15 -8 0 -15 7 -15 15 0 8 7 15
15 15 8 0 15 -7 15 -15z m-390 -30 c5 3 10 0 10 -9 0 -12 -5 -12 -29 -3 -17 6
-27 15 -24 19 2 5 11 4 18 -2 8 -7 19 -9 25 -5z m-313 -1 c-3 -3 -12 -4 -19
-1 -8 3 -5 6 6 6 11 1 17 -2 13 -5z m103 -9 c19 -22 8 -25 -12 -3 -10 10 -14
18 -9 18 5 0 14 -7 21 -15z m-62 -63 c7 -12 9 -22 5 -22 -15 0 -43 34 -43 52
0 16 2 17 13 6 6 -8 18 -24 25 -36z m177 10 c-6 -8 -35 12 -35 24 0 11 4 10
18 -3 10 -10 18 -19 17 -21z m125 13 c10 -12 10 -15 -4 -15 -9 0 -16 7 -16 15
0 8 2 15 4 15 2 0 9 -7 16 -15z m850 -15 c0 -5 -2 -10 -4 -10 -3 0 -8 5 -11
10 -3 6 -1 10 4 10 6 0 11 -4 11 -10z m114 -18 c2 -4 -4 -9 -15 -9 -11 -1 -17
2 -14 8 7 11 22 12 29 1z m-1171 -19 c20 -12 3 -21 -25 -12 -47 13 -62 33 -18
24 19 -4 38 -9 43 -12z m176 -21 c14 -13 14 -13 -4 -10 -13 2 -21 12 -22 28
-1 14 0 18 3 10 4 -8 14 -21 23 -28z m362 5 c-6 -6 -11 -19 -11 -29 0 -10 -4
-18 -10 -18 -14 0 -13 43 2 58 6 6 15 9 20 5 6 -3 5 -10 -1 -16z m608 -4 c2
-2 -3 -3 -11 -3 -9 0 -19 7 -22 16 -6 15 -4 15 11 3 10 -7 20 -15 22 -16z
m-398 -43 c-12 -11 -28 -17 -34 -13 -12 8 20 33 42 33 12 -1 10 -6 -8 -20z
m429 -75 c-7 -9 -15 -13 -17 -11 -7 7 7 26 19 26 6 0 6 -6 -2 -15z m-2405 -15
c11 -18 -6 -50 -34 -64 -33 -18 -54 -7 -49 25 4 34 68 63 83 39z m2475 0 c0
-5 -9 -10 -21 -10 -11 0 -17 5 -14 10 3 6 13 10 21 10 8 0 14 -4 14 -10z
m-1410 -9 c0 -6 -10 -17 -22 -26 -16 -12 -19 -19 -10 -22 14 -5 17 -49 3 -57
-14 -9 -24 83 -10 100 13 16 39 19 39 5z m-71 -17 c5 -4 -9 -24 -17 -24 -4 0
-13 9 -20 21 -12 19 -12 20 10 14 13 -4 25 -9 27 -11z m1291 6 c0 -5 -5 -10
-11 -10 -5 0 -7 5 -4 10 3 6 8 10 11 10 2 0 4 -4 4 -10z m-1535 -23 c0 -26
-20 -25 -23 2 -3 16 1 22 10 19 7 -3 13 -12 13 -21z m1010 -26 c3 -5 1 -12 -5
-16 -5 -3 -10 1 -10 9 0 18 6 21 15 7z m-790 -21 c4 -6 2 -17 -4 -24 -6 -7 -8
-22 -5 -32 4 -11 3 -16 -2 -11 -5 5 -9 24 -9 43 0 34 8 43 20 24z m395 -9 c0
-5 -7 -17 -16 -25 -9 -10 -13 -24 -9 -36 4 -11 2 -20 -4 -20 -6 0 -11 -5 -11
-11 0 -15 -100 -110 -110 -104 -4 3 -10 14 -13 26 -4 14 -2 19 8 16 20 -8 102
74 120 121 16 38 35 57 35 33z m-293 -63 c-3 -8 -6 -5 -6 6 -1 11 2 17 5 13 3
-3 4 -12 1 -19z m463 12 c0 -5 -5 -10 -11 -10 -5 0 -7 5 -4 10 3 6 8 10 11 10
2 0 4 -4 4 -10z m-313 -22 c-3 -8 -6 -5 -6 6 -1 11 2 17 5 13 3 -3 4 -12 1
-19z m261 -140 c-29 -26 -33 -27 -37 -11 -2 9 5 22 14 28 10 5 25 18 34 28 14
16 16 16 19 2 2 -9 -11 -30 -30 -47z m92 7 c0 -17 -27 -20 -49 -6 -12 8 -12
12 -2 25 15 18 51 5 51 -19z m-380 -95 c0 -5 -2 -10 -4 -10 -3 0 -8 5 -11 10
-3 6 -1 10 4 10 6 0 11 -4 11 -10z m-210 -74 c0 -3 -4 -8 -10 -11 -5 -3 -10
-1 -10 4 0 6 5 11 10 11 6 0 10 -2 10 -4z m260 -110 c0 -3 -4 -8 -10 -11 -5
-3 -10 -1 -10 4 0 6 5 11 10 11 6 0 10 -2 10 -4z m-37 -40 c9 -7 28 -11 41 -9
18 4 26 0 31 -16 3 -12 13 -21 21 -21 12 0 14 7 9 30 -8 36 4 38 34 6 19 -20
28 -23 51 -16 24 7 31 4 43 -14 24 -36 23 -60 -1 -86 -12 -13 -22 -34 -22 -47
0 -13 -6 -23 -13 -23 -7 0 -26 -22 -42 -50 -16 -27 -35 -52 -42 -54 -7 -3 -28
1 -47 9 -20 8 -52 15 -73 15 -21 0 -47 7 -57 15 -25 19 -28 19 -56 -5 -30 -26
-34 -25 -62 8 -39 45 -66 65 -92 67 -14 2 -30 6 -35 10 -17 10 -13 65 5 72 19
7 76 -21 113 -55 l25 -23 19 25 c21 29 48 33 68 10 11 -14 13 -14 21 0 5 10 4
24 -2 37 -10 17 -8 25 11 45 12 13 22 37 23 54 1 34 4 35 29 16z"/>
<path d="M1546 2713 c-12 -12 -6 -33 9 -33 8 0 15 6 15 14 0 17 -14 28 -24 19z"/>
<path d="M1490 2521 c0 -25 6 -27 13 -6 4 8 2 17 -3 20 -6 4 -10 -3 -10 -14z"/>
<path d="M2715 2550 c3 -5 10 -10 16 -10 5 0 9 5 9 10 0 6 -7 10 -16 10 -8 0
-12 -4 -9 -10z"/>
<path d="M2508 2293 c6 -2 18 -2 25 0 6 3 1 5 -13 5 -14 0 -19 -2 -12 -5z"/>
<path d="M2670 2260 c0 -5 7 -10 16 -10 8 0 12 5 9 10 -3 6 -10 10 -16 10 -5
0 -9 -4 -9 -10z"/>
<path d="M2177 2049 c-24 -27 -14 -40 25 -29 17 5 34 8 37 5 10 -6 0 -75 -10
-75 -12 0 -11 -27 1 -35 6 -4 18 -1 26 6 13 11 19 9 34 -11 17 -22 18 -22 17
-5 -1 11 -10 29 -19 39 -10 10 -15 23 -12 28 3 5 0 15 -6 23 -10 13 -8 15 14
15 16 0 26 -5 26 -15 0 -8 -4 -15 -10 -15 -5 0 -10 -4 -10 -10 0 -5 13 -7 30
-3 27 5 30 3 30 -21 0 -28 6 -31 30 -16 12 8 13 12 2 19 -8 4 -17 24 -21 42
-5 26 -12 35 -31 37 -14 2 -29 9 -35 16 -5 7 -30 16 -55 19 -37 5 -48 2 -63
-14z"/>
<path d="M1902 2044 c-12 -13 -10 -20 11 -47 14 -18 26 -41 28 -52 3 -11 11
-21 20 -23 22 -4 34 66 15 88 -7 8 -16 23 -19 33 -8 21 -37 22 -55 1z m56 -42
c2 -7 -3 -12 -12 -12 -9 0 -16 7 -16 16 0 17 22 14 28 -4z"/>
<path d="M2372 2015 c-1 -26 3 -35 14 -35 13 0 15 6 9 28 -10 42 -22 46 -23 7z"/>
<path d="M2405 2030 c-3 -5 1 -10 10 -10 9 0 13 5 10 10 -3 6 -8 10 -10 10 -2
0 -7 -4 -10 -10z"/>
<path d="M2474 2008 c-13 -21 -12 -68 1 -68 24 0 36 26 25 54 -11 29 -15 32
-26 14z"/>
<path d="M2420 1950 c0 -11 4 -20 9 -20 11 0 22 26 14 34 -12 12 -23 5 -23
-14z"/>
<path d="M2340 1280 c0 -5 5 -10 10 -10 6 0 10 5 10 10 0 6 -4 10 -10 10 -5 0
-10 -4 -10 -10z"/>
<path d="M2330 1169 c0 -5 5 -7 10 -4 6 3 10 8 10 11 0 2 -4 4 -10 4 -5 0 -10
-5 -10 -11z"/>
<path d="M3845 4256 c-5 -3 -22 -7 -37 -10 -22 -5 -28 -13 -34 -44 -4 -20 -11
-43 -17 -51 -18 -21 -56 -32 -76 -21 -12 6 -40 6 -81 -1 -50 -8 -64 -7 -74 4
-6 8 -26 20 -44 27 -29 11 -35 10 -53 -6 -21 -19 -22 -53 -4 -134 4 -18 -3
-34 -25 -60 l-29 -35 -25 30 -25 30 -40 -39 c-33 -33 -38 -41 -28 -57 6 -10
25 -19 42 -21 20 -2 30 -8 30 -20 0 -9 4 -20 8 -24 4 -4 7 -16 7 -26 0 -30 41
-78 66 -78 13 0 26 -5 30 -11 3 -6 15 -9 25 -6 15 4 19 0 19 -23 0 -16 5 -32
10 -35 6 -3 10 -15 10 -26 0 -33 24 -16 31 22 8 45 12 28 9 -44 l-2 -58 36 6
c32 6 37 5 46 -19 14 -39 53 -35 79 8 27 43 26 48 -3 44 -33 -4 -73 20 -79 48
-3 18 0 24 14 24 21 0 24 12 8 41 -8 16 -17 19 -39 14 -16 -3 -38 -2 -49 4
-13 7 -22 8 -26 1 -8 -13 -25 -13 -25 0 0 6 7 10 15 10 8 0 15 7 15 15 0 16
54 48 64 38 3 -4 6 1 6 11 0 25 41 76 62 76 10 0 21 7 24 15 8 21 25 19 78
-11 l46 -26 45 49 c25 26 45 53 45 60 0 18 50 53 76 53 51 0 60 -81 14 -134
-17 -19 -35 -49 -42 -68 -6 -18 -19 -41 -29 -51 -11 -10 -19 -24 -19 -32 0 -8
-9 -20 -21 -29 -15 -10 -19 -20 -14 -35 9 -30 53 -79 85 -96 26 -14 28 -13 34
9 4 16 19 28 49 40 32 12 48 26 60 51 13 28 23 35 45 35 26 0 52 -15 52 -31 0
-7 -42 -61 -113 -142 l-48 -56 17 -33 c36 -67 62 -139 57 -158 -3 -11 0 -20 6
-20 6 0 17 -12 23 -27 7 -16 27 -52 46 -80 25 -41 38 -53 58 -53 35 0 49 -41
29 -80 -8 -16 -15 -36 -15 -45 0 -9 -9 -15 -24 -15 -14 0 -28 -5 -31 -10 -10
-16 -77 -41 -93 -35 -9 3 -12 13 -9 25 3 11 1 20 -4 20 -14 0 -27 63 -16 77
13 18 1 44 -18 37 -11 -4 -14 -2 -9 9 3 8 1 18 -5 22 -6 3 -11 16 -10 28 0 12
3 16 6 9 2 -6 9 -10 13 -7 5 3 2 27 -5 53 -18 59 -18 60 0 36 14 -17 15 -15 9
31 -8 65 -23 82 -61 66 -16 -6 -40 -27 -55 -45 l-27 -33 25 -22 c13 -11 24
-26 24 -32 0 -6 -16 9 -36 33 -20 23 -39 47 -43 51 -4 4 -21 3 -37 -3 -41 -17
-97 -20 -111 -8 -10 8 -13 5 -13 -11 0 -24 -12 -27 -30 -7 -6 8 -26 20 -45 26
-20 7 -32 17 -31 27 1 12 -8 17 -29 19 -31 2 -115 51 -115 67 0 5 8 6 18 1 29
-12 92 -17 92 -6 0 14 -40 38 -72 44 -21 4 -29 1 -33 -13 -4 -11 -16 -19 -27
-19 -20 0 -20 -1 -5 -18 22 -24 21 -32 -3 -32 -13 0 -20 7 -20 19 0 24 -35 34
-52 14 -10 -13 -8 -19 11 -35 29 -23 16 -44 -22 -34 -19 4 -24 11 -20 26 4 15
-5 31 -31 56 -40 39 -43 49 -20 62 13 7 14 13 5 31 -10 17 -16 19 -31 11 -12
-6 -17 -17 -14 -28 2 -9 -2 -3 -10 13 -8 17 -15 37 -16 46 0 9 -11 21 -25 27
-15 7 -25 20 -25 32 0 11 -7 20 -15 20 -20 0 -37 36 -29 62 6 19 4 21 -31 15
-39 -6 -64 -30 -65 -60 0 -22 -28 -77 -38 -77 -4 0 -13 -15 -21 -32 -7 -18
-15 -27 -18 -20 -7 17 -33 15 -33 -3 0 -8 7 -15 15 -15 8 0 15 -6 15 -14 0 -7
-7 -19 -15 -26 -11 -9 -15 -9 -15 -1 0 7 -5 9 -11 5 -8 -4 -7 -9 2 -15 11 -7
11 -11 1 -21 -10 -10 -18 -9 -40 3 -33 18 -74 19 -79 2 -3 -7 4 -16 14 -19 10
-3 26 -10 35 -15 10 -5 24 -9 33 -9 20 0 31 -48 16 -72 -9 -14 -8 -23 4 -42
15 -23 15 -25 -5 -31 -15 -5 -26 0 -40 17 -17 20 -19 21 -20 5 0 -10 11 -30
25 -44 22 -24 27 -26 48 -14 21 11 28 11 50 -4 32 -21 47 -13 47 26 0 23 4 29
21 29 13 0 18 -4 13 -12 -5 -7 -7 -25 -6 -40 1 -14 -2 -30 -8 -33 -7 -4 -7
-12 0 -24 12 -23 4 -31 -31 -31 -29 0 -46 -14 -29 -25 5 -3 10 -16 10 -29 0
-12 3 -25 6 -28 9 -10 44 4 44 18 0 7 -6 11 -14 8 -20 -8 -28 12 -11 26 11 9
15 9 15 1 0 -16 52 -2 66 17 6 9 10 23 9 31 -1 9 0 10 2 4 7 -20 21 -15 39 12
9 14 20 22 26 19 6 -4 6 -62 -1 -91 -2 -9 -30 -1 -34 10 -4 10 -6 10 -6 0 -1
-7 -12 -13 -25 -13 -27 0 -51 -24 -41 -40 4 -7 18 -2 40 14 35 27 45 25 45 -8
0 -18 7 -15 40 21 25 27 46 40 55 37 11 -5 15 1 15 25 0 35 -22 43 -39 14 -7
-13 -8 -7 -4 24 3 25 0 53 -8 72 -13 28 -15 29 -31 14 -10 -9 -18 -27 -18 -40
0 -18 -5 -23 -25 -23 -33 0 -31 7 10 55 42 48 45 68 10 59 -15 -4 -25 -2 -25
5 0 6 17 11 39 11 22 0 43 5 46 10 11 18 26 10 20 -10 -6 -20 9 -28 20 -10 3
6 24 10 45 10 31 0 38 -3 34 -15 -5 -12 5 -13 63 -8 68 6 98 17 87 34 -3 5 4
9 14 9 12 0 24 -11 32 -30 7 -16 20 -32 29 -35 9 -3 23 -16 32 -28 16 -22 15
-23 -7 -34 -16 -7 -22 -8 -17 -1 11 19 -26 39 -47 26 -15 -9 -16 -16 -7 -35 5
-13 17 -23 26 -23 23 0 63 -29 56 -41 -12 -18 5 -28 30 -19 19 7 25 6 25 -5 0
-18 -17 -28 -25 -16 -8 13 -32 3 -39 -16 -7 -18 20 -53 41 -53 7 0 22 6 33 12
14 9 24 10 34 3 64 -47 63 -47 118 -37 58 11 118 -5 118 -31 0 -22 36 -49 70
-52 41 -3 43 -7 29 -54 -10 -34 -10 -44 5 -66 9 -14 29 -31 44 -36 26 -10 26
-11 7 -21 -11 -6 -30 -20 -43 -31 -20 -19 -26 -20 -56 -9 -28 10 -42 10 -77
-2 -48 -17 -63 -13 -56 15 7 27 -11 34 -34 13 -23 -21 -26 -18 -37 32 -8 37
-10 39 -43 36 -48 -3 -65 9 -48 36 17 27 3 42 -15 17 -13 -18 -14 -18 -24 1
-10 16 -11 14 -6 -13 6 -32 6 -32 -20 -20 -18 8 -24 17 -20 29 8 28 -6 42 -22
21 -13 -17 -13 -17 -14 5 0 29 -24 28 -44 -3 -9 -14 -23 -25 -31 -25 -8 0 -15
-4 -15 -10 0 -5 8 -10 18 -10 9 0 30 -11 46 -23 28 -23 28 -24 12 -49 -15 -23
-39 -39 -78 -52 -20 -6 -24 -26 -6 -26 6 0 22 -10 35 -22 24 -22 44 -19 25 5
-9 10 -8 17 0 25 14 14 38 16 38 4 0 -5 11 -14 25 -20 14 -7 25 -8 25 -2 0 5
7 7 16 3 15 -5 15 -7 -1 -15 -9 -6 -25 -8 -35 -5 -11 3 -28 -3 -39 -12 -19
-17 -19 -17 0 -29 10 -7 25 -12 33 -12 8 0 19 -7 24 -16 8 -15 12 -15 43 2 24
12 31 13 23 3 -18 -21 -25 -71 -16 -104 10 -35 22 -37 39 -4 7 13 17 24 23 23
5 -1 17 -2 25 -2 20 -3 19 -22 -2 -38 -16 -12 -16 -15 -3 -24 22 -14 40 -12
46 5 8 21 64 20 64 -1 0 -8 -4 -13 -10 -9 -5 3 -18 -3 -30 -15 -11 -11 -27
-20 -35 -20 -21 0 -19 -13 4 -27 14 -9 18 -19 14 -35 -4 -13 -2 -20 3 -15 5 5
9 14 9 20 0 7 13 11 29 10 25 -2 27 1 22 22 -5 20 -3 25 13 25 11 0 23 5 26
11 10 16 45 -20 45 -46 0 -12 11 -32 24 -44 l23 -22 37 22 c33 19 36 25 36 65
0 28 -4 44 -12 44 -9 0 -8 4 2 10 20 13 41 12 38 -1 -5 -19 22 -22 29 -4 4 12
-1 23 -15 34 -27 20 -27 88 0 96 13 5 15 12 8 36 -8 25 -6 30 6 25 10 -4 16 3
21 24 3 17 11 30 17 30 7 0 7 3 1 8 -6 4 -16 19 -22 34 -11 24 -10 29 8 38 25
14 104 3 120 -16 6 -8 20 -14 30 -14 12 0 21 -11 27 -32 6 -25 15 -34 38 -39
44 -9 71 5 88 46 11 25 21 35 37 35 17 0 20 4 15 24 -3 14 -2 28 4 31 5 3 10
24 10 45 0 54 26 76 99 84 62 7 98 32 88 60 -4 9 1 22 9 31 14 13 12 17 -12
39 -26 22 -27 26 -16 51 12 26 11 31 -24 66 -29 30 -35 43 -30 62 10 41 -10
120 -34 137 -12 8 -46 36 -75 63 -28 26 -59 47 -67 47 -25 0 -48 -35 -48 -73
0 -56 -27 -77 -98 -77 -46 0 -63 -4 -77 -20 -36 -40 -71 -18 -78 49 -2 16 -8
36 -14 43 -33 41 -13 95 26 71 11 -7 53 -10 107 -7 71 2 91 7 99 20 6 9 23 32
39 51 31 37 30 67 -5 111 -10 14 -19 32 -19 42 0 9 -9 25 -20 35 -28 25 -80
133 -80 165 0 22 -6 29 -29 33 -22 5 -32 14 -41 42 -9 26 -17 35 -34 35 -12 0
-30 6 -39 13 -22 16 -87 134 -87 157 0 34 -21 65 -64 92 -39 25 -107 42 -131
34z m-55 -246 c0 -5 -4 -10 -9 -10 -6 0 -13 5 -16 10 -3 6 1 10 9 10 9 0 16
-4 16 -10z m-147 -80 c-7 -28 -13 -25 -13 6 0 14 4 23 9 20 5 -3 7 -15 4 -26z
m-73 -94 c0 -3 -4 -8 -10 -11 -5 -3 -10 -1 -10 4 0 6 5 11 10 11 6 0 10 -2 10
-4z m-405 -287 c11 -17 -1 -21 -15 -4 -8 9 -8 15 -2 15 6 0 14 -5 17 -11z
m1023 -40 c2 -15 -4 -32 -14 -39 -14 -12 -18 -12 -30 5 -26 36 -16 68 21 63
13 -2 21 -12 23 -29z m-1098 -173 c0 -2 -7 -7 -16 -10 -8 -3 -12 -2 -9 4 6 10
25 14 25 6z m-40 -81 c-14 -7 -27 -11 -30 -9 -6 7 22 24 40 23 9 0 5 -6 -10
-14z m965 5 c3 -5 1 -10 -4 -10 -6 0 -11 5 -11 10 0 6 2 10 4 10 3 0 8 -4 11
-10z m-395 -20 c0 -5 -12 -10 -27 -10 -22 0 -25 2 -13 10 20 13 40 13 40 0z
m-515 -29 c-7 -24 -45 -29 -45 -6 0 9 6 12 15 9 9 -4 18 1 21 10 9 24 17 12 9
-13z m585 -41 c0 -5 -7 -10 -16 -10 -8 0 -12 5 -9 10 3 6 10 10 16 10 5 0 9
-4 9 -10z m266 -29 c-6 -9 -56 -22 -56 -14 0 4 40 21 53 22 5 1 6 -3 3 -8z
m-341 -21 c3 -5 1 -10 -4 -10 -6 0 -11 5 -11 10 0 6 2 10 4 10 3 0 8 -4 11
-10z m415 -74 c0 -6 -103 -36 -108 -31 -2 2 18 10 44 19 54 16 64 18 64 12z
m345 -56 c3 -5 1 -10 -4 -10 -6 0 -11 5 -11 10 0 6 2 10 4 10 3 0 8 -4 11 -10z
m-310 -30 c3 -5 1 -10 -4 -10 -6 0 -11 -6 -11 -14 0 -8 -4 -17 -8 -20 -5 -3
-6 8 -4 25 4 29 16 37 27 19z m358 -70 c3 -11 1 -23 -4 -26 -5 -3 -9 6 -9 20
0 31 6 34 13 6z m-871 -77 c24 -21 24 -48 1 -38 -10 4 -26 10 -35 12 -14 4
-15 9 -7 24 12 23 17 24 41 2z m74 -95 c9 -15 -2 -20 -30 -12 -34 8 -35 33 -1
26 14 -2 28 -9 31 -14z m-48 -30 c18 -18 15 -28 -8 -28 -13 0 -20 7 -20 20 0
23 10 26 28 8z m169 -5 c3 -7 -9 -10 -29 -8 -45 4 -47 6 -18 15 30 9 42 8 47
-7z m-87 -29 c0 -9 -5 -14 -12 -12 -18 6 -21 28 -4 28 9 0 16 -7 16 -16z m329
-58 c25 -39 29 -69 7 -46 -13 14 -39 80 -31 80 2 0 13 -15 24 -34z m98 12 c-3
-8 -6 -5 -6 6 -1 11 2 17 5 13 3 -3 4 -12 1 -19z m-223 -24 c3 -8 2 -12 -4 -9
-6 3 -10 10 -10 16 0 14 7 11 14 -7z m49 -14 c3 -11 1 -18 -4 -14 -5 3 -9 12
-9 20 0 20 7 17 13 -6z m-56 -46 c-3 -3 -12 -4 -19 -1 -8 3 -5 6 6 6 11 1 17
-2 13 -5z m160 -16 c-3 -8 -6 -5 -6 6 -1 11 2 17 5 13 3 -3 4 -12 1 -19z m-10
-24 c-3 -3 -12 -4 -19 -1 -8 3 -5 6 6 6 11 1 17 -2 13 -5z m8 -94 c-3 -5 -21
-10 -38 -9 -31 1 -31 1 -7 9 36 11 52 11 45 0z"/>
<path d="M2963 4013 c-17 -6 -17 -33 0 -33 14 0 37 20 37 32 0 9 -18 9 -37 1z"/>
<path d="M3070 3963 c0 -26 33 -53 64 -53 35 0 66 24 50 39 -13 12 -114 25
-114 14z"/>
<path d="M2550 3910 c0 -5 5 -10 10 -10 6 0 10 5 10 10 0 6 -4 10 -10 10 -5 0
-10 -4 -10 -10z"/>
<path d="M3220 3890 c0 -5 5 -10 11 -10 5 0 7 5 4 10 -3 6 -8 10 -11 10 -2 0
-4 -4 -4 -10z"/>
<path d="M3005 3830 c3 -5 8 -10 11 -10 2 0 4 5 4 10 0 6 -5 10 -11 10 -5 0
-7 -4 -4 -10z"/>
<path d="M2360 3820 c0 -5 7 -7 15 -4 8 4 15 8 15 10 0 2 -7 4 -15 4 -8 0 -15
-4 -15 -10z"/>
<path d="M1880 3799 c0 -18 2 -19 15 -9 15 12 12 30 -6 30 -5 0 -9 -10 -9 -21z"/>
<path d="M3120 3785 c0 -9 5 -15 11 -13 6 2 11 8 11 13 0 5 -5 11 -11 13 -6 2
-11 -4 -11 -13z"/>
<path d="M3030 3776 c0 -15 18 -31 26 -23 7 7 -7 37 -17 37 -5 0 -9 -6 -9 -14z"/>
<path d="M2443 3752 c-27 -4 -29 -14 -8 -32 18 -15 45 -6 45 14 0 19 -9 23
-37 18z"/>
<path d="M1773 3734 c-7 -19 2 -28 22 -21 19 8 19 23 0 31 -9 3 -18 -1 -22
-10z"/>
<path d="M1890 3700 c0 -5 5 -10 10 -10 6 0 10 5 10 10 0 6 -4 10 -10 10 -5 0
-10 -4 -10 -10z"/>
<path d="M2370 3676 c0 -9 7 -16 16 -16 9 0 14 5 12 12 -6 18 -28 21 -28 4z"/>
<path d="M2445 3660 c-3 -5 -1 -10 4 -10 6 0 11 5 11 10 0 6 -2 10 -4 10 -3 0
-8 -4 -11 -10z"/>
<path d="M3300 3660 c0 -5 5 -10 10 -10 6 0 10 5 10 10 0 6 -4 10 -10 10 -5 0
-10 -4 -10 -10z"/>
<path d="M1830 3640 c0 -5 7 -10 15 -10 8 0 15 5 15 10 0 6 -7 10 -15 10 -8 0
-15 -4 -15 -10z"/>
<path d="M2548 3643 c-10 -2 -18 -8 -18 -13 0 -4 9 -6 20 -3 11 3 20 9 20 14
0 5 -1 8 -2 8 -2 -1 -11 -3 -20 -6z"/>
<path d="M3205 3629 c-10 -15 3 -25 16 -12 7 7 7 13 1 17 -6 3 -14 1 -17 -5z"/>
<path d="M2426 3621 c-4 -5 -2 -12 3 -15 5 -4 12 -2 15 3 4 5 2 12 -3 15 -5 4
-12 2 -15 -3z"/>
<path d="M2500 3598 c0 -5 -11 -8 -24 -8 -14 0 -28 -5 -32 -11 -3 -6 -17 -8
-29 -5 -23 6 -23 5 -9 -23 19 -37 41 -46 54 -21 11 21 45 27 55 10 4 -6 -3 -9
-17 -7 -15 1 -23 -4 -26 -17 -3 -16 0 -18 19 -11 13 4 40 8 59 9 24 1 36 6 38
19 2 12 -3 17 -18 17 -18 0 -20 3 -11 14 7 8 21 12 32 9 18 -5 20 -4 9 13 -9
15 -23 19 -56 19 -24 0 -44 -3 -44 -7z"/>
<path d="M3737 3584 c-8 -8 1 -24 14 -24 5 0 9 7 9 15 0 15 -12 20 -23 9z"/>
<path d="M1750 3555 c-10 -12 -10 -19 -1 -28 9 -9 14 -9 21 3 22 34 4 54 -20
25z"/>
<path d="M3260 3556 c0 -9 5 -16 10 -16 6 0 10 4 10 9 0 6 -4 13 -10 16 -5 3
-10 -1 -10 -9z"/>
<path d="M1820 3550 c0 -5 7 -7 15 -4 8 4 15 8 15 10 0 2 -7 4 -15 4 -8 0 -15
-4 -15 -10z"/>
<path d="M3370 3550 c-27 -8 -25 -9 30 -15 19 -2 40 -5 45 -6 6 -1 20 1 33 5
20 7 25 1 46 -45 23 -49 70 -94 88 -83 5 3 14 1 21 -4 16 -13 57 3 57 21 0 8
-8 21 -19 31 -17 16 -19 15 -35 -9 -23 -35 -42 -31 -66 14 -36 72 -63 93 -122
96 -29 1 -64 -1 -78 -5z"/>
<path d="M2880 3510 c0 -5 5 -10 10 -10 6 0 10 5 10 10 0 6 -4 10 -10 10 -5 0
-10 -4 -10 -10z"/>
<path d="M2653 3502 c-14 -2 -20 -8 -16 -18 3 -7 9 -11 14 -8 6 3 16 0 24 -6
25 -21 17 -30 -12 -14 -43 22 -52 17 -59 -27 -5 -32 -10 -40 -24 -36 -13 3
-16 0 -13 -14 7 -26 23 -34 34 -18 8 11 12 10 25 -6 14 -19 15 -19 20 2 4 12
15 25 26 29 14 4 17 9 9 17 -7 7 -15 6 -26 -3 -20 -17 -31 -6 -19 20 8 18 11
19 36 6 21 -11 26 -11 22 -1 -3 7 -1 16 5 20 6 3 11 17 11 29 0 25 -19 34 -57
28z"/>
<path d="M3790 3497 c0 -8 -9 -22 -20 -32 -31 -28 -26 -68 6 -47 11 7 29 92
19 92 -3 0 -5 -6 -5 -13z"/>
<path d="M1885 3490 c-3 -5 -2 -16 2 -26 5 -14 3 -16 -11 -11 -13 5 -21 -2
-32 -29 -26 -61 -1 -81 57 -47 27 16 29 16 48 -1 28 -25 121 -14 121 15 0 20
-14 23 -103 21 -36 -1 -38 1 -24 16 8 9 16 29 19 43 4 25 2 26 -34 26 -21 0
-41 -3 -43 -7z m-1 -107 c-23 -17 -34 -17 -34 1 0 17 19 25 39 18 11 -4 10 -8
-5 -19z"/>
<path d="M3297 3480 c3 -11 9 -20 13 -20 4 0 15 9 25 20 18 20 17 20 -13 20
-25 0 -29 -3 -25 -20z"/>
<path d="M3380 3490 c0 -5 5 -10 10 -10 6 0 10 5 10 10 0 6 -4 10 -10 10 -5 0
-10 -4 -10 -10z"/>
<path d="M2500 3470 c-13 -8 -13 -11 3 -27 9 -9 17 -12 17 -6 0 6 3 18 6 27 7
18 -4 20 -26 6z"/>
<path d="M3320 3410 c0 -5 5 -10 11 -10 5 0 7 5 4 10 -3 6 -8 10 -11 10 -2 0
-4 -4 -4 -10z"/>
<path d="M2080 3365 c-10 -12 -10 -19 -2 -27 15 -15 48 14 38 31 -10 15 -21
14 -36 -4z"/>
<path d="M3606 3362 c-3 -6 -1 -14 5 -17 15 -10 25 3 12 16 -7 7 -13 7 -17 1z"/>
<path d="M2525 3350 c-7 -11 2 -30 15 -30 4 0 10 6 13 14 6 16 -19 30 -28 16z"/>
<path d="M2822 3340 c11 -17 11 -22 -2 -30 -21 -14 -30 -12 -30 5 0 19 -14 19
-30 0 -7 -8 -21 -13 -34 -10 -11 3 -34 2 -49 -3 -26 -7 -27 -9 -13 -27 14 -20
15 -20 23 2 7 18 11 19 25 9 9 -7 16 -19 16 -27 -2 -35 3 -47 24 -52 30 -8 35
-1 14 22 -14 16 -15 20 -2 30 8 7 24 10 34 7 14 -5 24 1 36 18 21 34 20 53 -4
66 -19 10 -20 10 -8 -10z"/>
<path d="M2447 3343 c-3 -5 -2 -15 2 -22 7 -10 10 -10 16 -1 4 6 3 16 -3 22
-5 5 -12 6 -15 1z"/>
<path d="M2035 3310 c-3 -5 1 -10 9 -10 9 0 16 5 16 10 0 6 -4 10 -9 10 -6 0
-13 -4 -16 -10z"/>
<path d="M3650 3305 c0 -8 5 -15 10 -15 6 0 10 7 10 15 0 8 -4 15 -10 15 -5 0
-10 -7 -10 -15z"/>
<path d="M2496 3294 c-9 -8 -16 -18 -16 -20 0 -7 38 15 45 26 10 16 -12 12
-29 -6z"/>
<path d="M2570 3264 c0 -21 22 -42 40 -37 19 5 19 6 -4 24 -25 19 -36 24 -36
13z"/>
<path d="M3470 3251 c0 -5 5 -13 10 -16 6 -3 10 -2 10 4 0 5 -4 13 -10 16 -5
3 -10 2 -10 -4z"/>
<path d="M2645 3240 c3 -5 8 -10 11 -10 2 0 4 5 4 10 0 6 -5 10 -11 10 -5 0
-7 -4 -4 -10z"/>
<path d="M3230 3210 c0 -5 9 -10 21 -10 11 0 17 5 14 10 -3 6 -13 10 -21 10
-8 0 -14 -4 -14 -10z"/>
<path d="M3400 3205 c-6 -8 -8 -20 -4 -26 5 -9 11 -7 20 5 8 12 19 16 33 11
15 -5 21 -2 21 9 0 21 -53 22 -70 1z"/>
<path d="M2695 3200 c3 -5 8 -10 11 -10 2 0 4 5 4 10 0 6 -5 10 -11 10 -5 0
-7 -4 -4 -10z"/>
<path d="M3310 3185 c0 -8 7 -15 15 -15 8 0 15 7 15 15 0 8 -7 15 -15 15 -8 0
-15 -7 -15 -15z"/>
<path d="M2630 3176 c0 -7 -10 -16 -22 -20 -41 -10 1 -31 55 -27 12 1 17 7 15
19 -2 9 -10 16 -17 14 -9 -2 -11 3 -8 13 4 9 1 15 -8 15 -8 0 -15 -6 -15 -14z"/>
<path d="M2490 3140 c0 -5 9 -10 20 -10 11 0 20 5 20 10 0 6 -9 10 -20 10 -11
0 -20 -4 -20 -10z"/>
<path d="M2791 3141 c-10 -6 -2 -17 33 -40 25 -18 46 -38 46 -46 0 -17 17 -29
17 -12 0 7 2 17 3 22 6 24 -1 44 -13 39 -7 -2 -19 7 -27 21 -14 26 -34 31 -59
16z"/>
<path d="M2910 3135 c0 -9 6 -12 15 -9 8 4 15 10 15 15 0 5 -7 9 -15 9 -8 0
-15 -7 -15 -15z"/>
<path d="M3355 3140 c3 -5 -3 -10 -15 -10 -15 0 -20 -5 -18 -17 2 -12 11 -17
23 -15 33 6 50 52 19 52 -8 0 -12 -4 -9 -10z"/>
<path d="M3426 3098 c-16 -19 -17 -20 -1 -15 9 4 21 7 26 7 5 0 9 7 9 15 0 21
-12 19 -34 -7z"/>
<path d="M2520 3100 c0 -23 50 -34 78 -17 24 16 11 27 -33 27 -25 0 -45 -4
-45 -10z"/>
<path d="M3270 3090 c0 -5 7 -10 16 -10 8 0 12 5 9 10 -3 6 -10 10 -16 10 -5
0 -9 -4 -9 -10z"/>
<path d="M3326 3031 c-4 -7 -5 -15 -2 -18 9 -9 19 4 14 18 -4 11 -6 11 -12 0z"/>
<path d="M3505 3030 c-3 -5 -1 -10 4 -10 6 0 11 5 11 10 0 6 -2 10 -4 10 -3 0
-8 -4 -11 -10z"/>
<path d="M3392 3010 c-17 -27 -15 -60 3 -60 9 0 18 -7 21 -15 4 -8 12 -15 20
-15 7 0 17 -7 22 -16 8 -14 10 -13 15 5 3 11 1 21 -5 21 -5 0 -8 6 -5 13 2 7
-10 17 -27 23 -26 9 -30 15 -28 37 4 32 1 34 -16 7z"/>
<path d="M3286 2934 c-4 -10 -1 -14 6 -12 15 5 23 28 10 28 -5 0 -13 -7 -16
-16z"/>
<path d="M3508 2916 c-19 -14 -23 -26 -10 -26 4 0 18 9 32 20 16 13 20 20 10
19 -8 0 -23 -6 -32 -13z"/>
<path d="M3750 2915 c0 -9 -11 -21 -25 -27 -29 -13 -32 -26 -7 -44 24 -19 29
-17 36 9 l5 22 28 -27 c21 -22 25 -30 15 -40 -7 -7 -12 -24 -12 -39 0 -31 27
-47 37 -22 4 9 1 19 -5 21 -15 5 -16 32 -2 32 6 0 10 8 10 19 0 10 9 30 20 43
20 26 18 40 -5 31 -8 -2 -20 5 -27 16 -15 25 -68 30 -68 6z"/>
<path d="M3313 2903 c-15 -10 -23 -26 -23 -45 0 -25 2 -28 14 -18 8 6 12 19 9
28 -6 15 -5 15 10 3 17 -14 23 -61 10 -75 -5 -4 -8 -17 -8 -29 0 -13 -7 -23
-18 -25 -16 -3 -18 0 -12 20 l7 23 -26 -24 c-27 -25 -34 -55 -16 -66 6 -4 18
-1 27 6 8 8 28 12 44 11 19 -2 31 3 38 17 15 27 14 30 -9 24 -11 -3 -20 0 -20
6 0 6 4 11 9 11 11 0 21 27 27 77 3 20 7 39 9 43 2 4 -7 5 -20 2 -20 -3 -24
-1 -19 12 8 20 -4 20 -33 -1z"/>
<path d="M1885 2900 c-3 -5 -15 -10 -25 -10 -28 0 -33 -17 -9 -30 17 -10 25
-8 45 11 13 12 21 26 18 30 -7 12 -21 11 -29 -1z"/>
<path d="M1927 2873 c-20 -19 7 -126 30 -121 22 4 29 58 8 58 -15 0 -16 3 -19
39 -1 23 -10 34 -19 24z"/>
<path d="M3645 2861 c-3 -5 -1 -12 5 -16 5 -3 10 1 10 9 0 18 -6 21 -15 7z"/>
<path d="M3425 2850 c-3 -5 -1 -10 4 -10 6 0 11 5 11 10 0 6 -2 10 -4 10 -3 0
-8 -4 -11 -10z"/>
<path d="M2263 2820 c2 -32 21 -41 31 -14 8 22 8 22 -14 34 -17 9 -19 7 -17
-20z"/>
<path d="M1873 2805 c-17 -12 -23 -12 -27 -2 -3 6 -3 2 0 -10 3 -14 1 -23 -7
-23 -9 0 -8 -4 1 -15 7 -8 9 -15 4 -15 -12 0 19 -20 31 -20 16 0 35 49 22 57
-7 4 -4 9 7 13 15 5 16 8 4 18 -11 9 -19 8 -35 -3z"/>
<path d="M2257 2757 c-23 -36 -21 -45 4 -19 11 13 19 28 17 34 -2 6 -12 -1
-21 -15z"/>
<path d="M3400 2770 c0 -5 7 -10 16 -10 8 0 12 5 9 10 -3 6 -10 10 -16 10 -5
0 -9 -4 -9 -10z"/>
<path d="M1990 2742 c1 -17 19 -34 29 -28 17 11 13 23 -9 29 -11 3 -20 2 -20
-1z"/>
<path d="M2162 2718 c-19 -19 -14 -30 11 -26 12 2 22 9 22 17 0 19 -18 24 -33
9z"/>
<path d="M3386 2695 c-10 -15 -26 -25 -41 -25 -28 0 -33 -15 -10 -28 9 -4 24
-24 34 -43 19 -36 51 -52 51 -25 0 9 -4 16 -10 16 -14 0 -13 37 2 46 8 5 6 11
-6 20 -14 10 -16 16 -6 34 17 31 6 35 -14 5z"/>
<path d="M2100 2695 c0 -8 3 -15 6 -15 3 0 12 7 20 15 14 13 13 15 -5 15 -12
0 -21 -6 -21 -15z"/>
<path d="M2220 2674 c0 -8 5 -12 10 -9 6 4 8 11 5 16 -9 14 -15 11 -15 -7z"/>
<path d="M3267 2673 c-4 -7 -2 -21 4 -31 16 -25 4 -55 -18 -50 -12 2 -18 13
-18 31 1 30 -7 34 -25 12 -10 -13 -9 -19 6 -36 18 -21 18 -21 -3 -39 l-22 -18
21 -18 c20 -19 21 -19 14 2 -5 16 0 26 20 38 14 10 32 15 41 12 25 -10 33 3
20 32 -6 15 -15 29 -18 32 -4 3 -8 14 -11 25 -2 14 -6 16 -11 8z"/>
<path d="M2026 2661 c-7 -10 22 -37 30 -28 9 8 -3 37 -15 37 -5 0 -12 -4 -15
-9z"/>
<path d="M2210 2630 c0 -5 5 -10 11 -10 5 0 7 5 4 10 -3 6 -8 10 -11 10 -2 0
-4 -4 -4 -10z"/>
<path d="M3130 2624 c0 -8 5 -12 10 -9 6 3 10 10 10 16 0 5 -4 9 -10 9 -5 0
-10 -7 -10 -16z"/>
<path d="M3129 2554 c-12 -14 -11 -16 5 -13 11 2 21 10 24 17 5 17 -13 15 -29
-4z"/>
<path d="M3395 2530 c-8 -12 20 -24 35 -15 5 3 10 10 10 16 0 12 -37 12 -45
-1z"/>
<path d="M3470 2505 c-14 -16 -10 -18 14 -9 9 3 16 10 16 15 0 14 -16 11 -30
-6z"/>
<path d="M3594 2505 c-9 -21 -2 -26 13 -10 8 9 9 16 3 20 -6 3 -13 -1 -16 -10z"/>
<path d="M3371 2494 c0 -11 3 -14 6 -6 3 7 2 16 -1 19 -3 4 -6 -2 -5 -13z"/>
<path d="M3213 2473 c-23 -9 -14 -20 12 -15 14 2 25 8 25 13 0 10 -17 11 -37
2z"/>
<path d="M4594 2465 c-10 -8 -37 -14 -59 -15 -22 0 -70 -7 -107 -16 -65 -16
-68 -16 -107 4 -26 14 -43 18 -47 11 -3 -6 -8 -46 -11 -90 -5 -64 -3 -86 12
-112 16 -30 16 -36 2 -63 -8 -16 -22 -56 -30 -88 -16 -58 -15 -59 7 -79 13
-12 43 -26 67 -31 35 -9 45 -16 51 -38 5 -16 11 -40 16 -54 4 -15 15 -32 25
-38 15 -9 24 -4 60 35 23 25 52 49 64 53 22 7 37 38 47 93 8 48 72 176 95 190
16 10 19 20 14 46 -3 19 0 44 6 56 23 43 -26 151 -69 151 -9 0 -25 -7 -36 -15z
m52 -115 c1 -17 -2 -30 -6 -30 -10 0 -21 41 -14 52 10 16 19 7 20 -22z m-204
-116 c3 -2 4 -13 1 -25 -4 -13 -13 -19 -27 -18 -11 1 -34 -3 -50 -10 -33 -13
-54 -9 -62 14 -14 34 3 45 68 43 35 0 66 -3 70 -4z"/>
<path d="M3425 2450 c-6 -20 10 -60 24 -60 14 0 32 27 29 41 -3 14 -28 38 -40
39 -4 0 -9 -9 -13 -20z"/>
<path d="M3512 2449 c2 -6 7 -10 11 -10 4 1 14 1 22 1 8 0 15 5 15 10 0 6 -12
10 -26 10 -14 0 -24 -5 -22 -11z"/>
<path d="M3303 2434 c-3 -8 -1 -20 6 -27 8 -8 11 -8 11 0 0 6 3 18 6 27 3 9 1
16 -5 16 -7 0 -14 -7 -18 -16z"/>
<path d="M3233 2420 c-16 -13 -19 -20 -10 -29 28 -28 66 -1 43 31 -11 14 -14
14 -33 -2z"/>
<path d="M3590 2420 c0 -13 5 -18 14 -14 8 3 12 12 9 20 -8 21 -23 17 -23 -6z"/>
<path d="M1576 2404 c-10 -25 -7 -34 9 -28 10 4 15 0 15 -11 0 -9 -5 -13 -11
-10 -7 5 -9 -3 -7 -21 2 -16 6 -27 9 -24 11 9 39 -22 39 -45 0 -12 8 -29 17
-36 15 -12 16 -12 10 5 -4 10 -2 25 4 33 9 11 7 19 -10 37 -13 14 -23 37 -23
57 -1 52 -37 82 -52 43z"/>
<path d="M3680 2380 c0 -5 7 -10 15 -10 8 0 15 5 15 10 0 6 -7 10 -15 10 -8 0
-15 -4 -15 -10z"/>
<path d="M3320 2376 c0 -2 7 -6 15 -10 8 -3 15 -1 15 4 0 6 -7 10 -15 10 -8 0
-15 -2 -15 -4z"/>
<path d="M3485 2341 c-6 -11 9 -23 19 -14 9 9 7 23 -3 23 -6 0 -12 -4 -16 -9z"/>
<path d="M3340 2314 c0 -9 5 -14 12 -12 18 6 21 28 4 28 -9 0 -16 -7 -16 -16z"/>
<path d="M3646 2313 c-9 -10 -7 -43 3 -43 11 0 21 39 11 45 -4 2 -10 2 -14 -2z"/>
<path d="M1693 2283 c-4 -10 -10 -21 -15 -24 -4 -3 3 -16 17 -29 14 -13 27
-22 29 -19 2 2 7 23 11 47 6 38 5 42 -14 42 -12 0 -25 -8 -28 -17z"/>
<path d="M3716 2250 c-10 -27 -23 -50 -28 -50 -6 0 -8 -14 -3 -36 5 -27 2 -39
-9 -47 -9 -7 -21 -39 -27 -72 -6 -33 -15 -68 -20 -77 -13 -25 -11 -31 5 -25
12 5 12 1 0 -30 -18 -43 -14 -62 8 -39 9 9 23 16 31 16 8 0 17 7 21 15 7 20
35 19 58 -2 20 -18 39 -10 20 9 -17 17 -15 28 6 28 11 0 27 -9 37 -20 10 -11
28 -19 39 -18 17 2 22 -5 29 -41 6 -31 5 -52 -4 -70 -7 -14 -13 -29 -13 -33
-1 -11 -83 -78 -95 -78 -6 0 -14 -12 -17 -27 -4 -16 -15 -45 -25 -65 -31 -60
-8 -86 41 -48 34 27 58 25 72 -5 6 -14 25 -29 44 -35 19 -7 36 -16 40 -21 8
-13 16 -77 15 -117 -2 -53 15 -75 52 -69 18 2 43 -1 57 -8 41 -19 127 -11 170
16 8 5 27 17 42 27 31 19 50 55 42 77 -4 9 1 36 10 60 31 80 23 93 -81 146
-100 51 -167 105 -158 128 3 8 0 18 -7 22 -8 5 -4 11 15 18 15 6 29 21 33 35
3 14 21 35 40 47 19 11 34 27 34 34 0 7 5 15 11 17 18 6 13 60 -7 75 -10 7
-29 13 -44 13 -16 0 -29 8 -35 22 -6 12 -19 26 -29 32 -11 6 -29 21 -40 33
-14 15 -37 23 -71 27 -27 3 -60 8 -72 12 -21 6 -21 8 -8 27 22 31 18 54 -10
73 -14 9 -25 25 -25 36 0 24 -21 19 -35 -9 -17 -33 -34 -50 -56 -56 -16 -4
-19 -2 -14 14 4 13 2 19 -9 19 -19 0 -20 4 -4 30 9 13 9 23 2 30 -7 7 -16 -6
-28 -40z m364 -240 c0 -13 -1 -13 -10 0 -5 8 -10 22 -10 30 0 13 1 13 10 0 5
-8 10 -22 10 -30z m50 -82 c0 -21 -3 -29 -10 -22 -5 5 -7 19 -4 32 9 31 14 27
14 -10z m-70 -23 c0 -5 -5 -3 -10 5 -5 8 -10 20 -10 25 0 6 5 3 10 -5 5 -8 10
-19 10 -25z m-16 -206 c-19 -21 -59 -25 -70 -8 -3 6 7 24 22 40 l29 30 18 -22
c16 -20 16 -23 1 -40z m-84 1 c0 -12 -8 -12 -35 0 -18 8 -17 9 8 9 15 1 27 -3
27 -9z"/>
<path d="M3532 2272 c-10 -7 -8 -12 7 -26 17 -15 19 -15 25 -1 13 34 -1 46
-32 27z"/>
<path d="M1760 2255 c0 -8 4 -15 10 -15 5 0 7 7 4 15 -4 8 -8 15 -10 15 -2 0
-4 -7 -4 -15z"/>
<path d="M3595 2140 c-16 -16 -25 -33 -21 -37 8 -8 56 41 56 58 0 14 -4 12
-35 -21z"/>
<path d="M2867 2013 c-10 -3 -17 -12 -15 -21 4 -19 58 -19 70 1 14 23 -9 32
-55 20z"/>
<path d="M3041 1951 c-11 -7 -10 -13 4 -35 23 -35 34 -33 32 6 -2 33 -14 43
-36 29z"/>
<path d="M3482 1906 c1 -10 8 -17 13 -17 15 1 12 24 -3 29 -9 3 -13 -2 -10
-12z"/>
<path d="M1490 1895 c0 -20 38 -57 51 -50 12 8 -21 65 -38 65 -7 0 -13 -7 -13
-15z"/>
<path d="M2970 1874 c0 -9 5 -14 12 -12 18 6 21 28 4 28 -9 0 -16 -7 -16 -16z"/>
<path d="M3136 1875 c4 -8 10 -15 14 -15 4 0 13 7 20 15 11 13 8 15 -13 15
-19 0 -25 -4 -21 -15z"/>
<path d="M1689 1873 c-1 -5 0 -17 1 -27 1 -14 -3 -18 -19 -13 -12 3 -21 2 -21
-2 0 -8 72 -62 77 -58 1 2 0 27 -4 55 -4 34 -10 52 -19 52 -8 0 -15 -3 -15 -7z"/>
<path d="M3031 1856 l-23 -13 22 -6 c27 -7 52 2 47 16 -5 17 -20 17 -46 3z"/>
<path d="M1795 1840 c-8 -13 14 -52 26 -45 15 10 11 55 -5 55 -8 0 -18 -4 -21
-10z"/>
<path d="M1860 1830 c0 -5 9 -14 20 -20 11 -6 20 -21 20 -35 0 -14 7 -26 19
-30 10 -3 21 -15 24 -25 7 -28 27 -25 27 3 0 14 -16 41 -37 64 -38 40 -73 61
-73 43z"/>
<path d="M1745 1820 c3 -5 8 -10 11 -10 2 0 4 5 4 10 0 6 -5 10 -11 10 -5 0
-7 -4 -4 -10z"/>
<path d="M2950 1811 c0 -6 4 -12 9 -15 5 -3 7 -16 3 -28 -3 -14 -1 -19 6 -14
16 9 12 66 -5 66 -7 0 -13 -4 -13 -9z"/>
<path d="M2907 1788 c-7 -27 2 -45 14 -27 11 18 11 49 0 49 -5 0 -11 -10 -14
-22z"/>
<path d="M3010 1771 c0 -14 -9 -25 -25 -31 -14 -5 -25 -16 -25 -25 0 -8 -4
-15 -9 -15 -5 0 -7 -9 -4 -20 4 -14 0 -20 -11 -20 -12 0 -14 5 -6 24 11 29
-13 71 -28 48 -13 -19 -88 -1 -84 21 2 11 -2 15 -13 11 -8 -3 -12 -10 -9 -15
3 -5 -6 -14 -20 -21 -19 -8 -26 -19 -26 -39 0 -40 15 -44 55 -13 39 30 59 26
30 -7 -16 -17 -17 -22 -5 -29 10 -6 2 -7 -22 -3 -26 4 -38 2 -38 -6 0 -7 -14
-25 -31 -41 -18 -16 -28 -33 -24 -40 5 -8 12 -6 26 6 24 22 38 10 20 -17 -17
-28 -11 -31 38 -23 42 7 57 24 21 24 -11 0 -20 5 -20 10 0 6 9 10 20 10 14 0
25 -12 37 -41 l16 -41 45 6 c26 3 56 15 68 27 18 17 26 19 43 9 12 -6 30 -8
41 -5 15 5 17 2 13 -15 -3 -12 0 -20 7 -20 6 0 14 9 17 20 7 26 21 25 49 -1
19 -18 21 -26 13 -41 -6 -11 -8 -29 -5 -41 3 -14 -3 -28 -19 -43 -14 -13 -25
-32 -25 -43 0 -11 -2 -25 -5 -33 -3 -7 8 -20 25 -30 28 -16 35 -16 73 -3 40
14 43 13 58 -7 16 -21 39 -18 39 5 1 24 39 59 58 53 10 -3 43 3 75 14 31 11
63 20 71 20 7 0 19 14 27 31 12 30 11 33 -19 60 -18 16 -39 29 -46 29 -19 0
-52 47 -60 85 -4 18 -16 35 -28 40 -13 6 -25 19 -28 31 -13 52 -98 110 -124
84 -5 -5 -18 -10 -28 -10 -15 0 -17 5 -12 25 3 14 3 32 0 41 -9 23 -36 -1 -36
-31 0 -29 -10 -38 -24 -21 -15 19 -76 9 -76 -12 0 -30 -30 11 -35 47 -5 39
-15 54 -15 22z m-100 -82 c0 -5 -7 -9 -15 -9 -15 0 -20 12 -9 23 8 8 24 -1 24
-14z m-30 -69 c0 -5 -7 -10 -15 -10 -8 0 -15 5 -15 10 0 6 7 10 15 10 8 0 15
-4 15 -10z m-60 -24 c0 -3 -4 -8 -10 -11 -5 -3 -10 -1 -10 4 0 6 5 11 10 11 6
0 10 -2 10 -4z m583 -176 c-3 -11 -9 -20 -15 -20 -5 0 -4 9 2 20 6 11 12 20
14 20 2 0 2 -9 -1 -20z"/>
<path d="M3554 1739 c-5 -9 -17 -18 -26 -22 -10 -3 -18 -16 -18 -27 0 -30 32
-22 48 13 15 31 12 62 -4 36z"/>
<path d="M1720 1736 c0 -2 7 -6 15 -10 8 -3 15 -1 15 4 0 6 -7 10 -15 10 -8 0
-15 -2 -15 -4z"/>
<path d="M3660 1675 c-13 -16 -7 -45 9 -45 11 0 31 32 31 49 0 16 -26 13 -40
-4z"/>
<path d="M1864 1665 c26 -19 42 -19 26 0 -7 8 -20 15 -29 15 -13 -1 -13 -3 3
-15z"/>
<path d="M3393 1655 c-3 -9 -3 -18 0 -21 9 -9 27 6 27 22 0 19 -19 18 -27 -1z"/>
<path d="M1630 1612 c0 -12 19 -26 26 -19 2 2 -2 10 -11 17 -9 8 -15 8 -15 2z"/>
<path d="M2958 1465 c-20 -14 -48 -25 -61 -25 -31 0 -38 -9 -26 -31 12 -24 35
-24 48 -2 9 17 10 17 28 0 28 -25 36 -21 30 12 -5 24 -2 31 13 36 11 4 20 13
20 21 0 20 -10 18 -52 -11z"/>
<path d="M2214 1456 c-15 -12 -16 -17 -7 -27 10 -10 14 -8 19 7 4 10 12 22 18
26 8 5 8 8 0 8 -5 0 -19 -6 -30 -14z"/>
<path d="M2940 1336 c0 -9 7 -16 16 -16 17 0 14 22 -4 28 -7 2 -12 -3 -12 -12z"/>
<path d="M3618 1223 c-2 -31 -8 -39 -30 -47 -21 -8 -32 -6 -46 7 -25 23 -35
21 -70 -8 -51 -43 -81 -42 -129 4 -36 33 -47 38 -70 32 -16 -4 -40 -3 -56 3
-20 8 -32 7 -45 -2 -25 -18 -64 -33 -92 -36 -18 -2 -27 -12 -34 -35 -12 -41
-2 -49 34 -28 16 10 31 13 34 8 3 -4 19 -11 36 -14 35 -8 38 -22 9 -53 l-20
-22 30 -22 c41 -28 41 -62 1 -92 -56 -41 -28 -108 45 -108 17 0 36 -5 41 -10
12 -12 94 -2 94 11 0 17 35 9 65 -15 22 -18 34 -22 47 -15 12 6 25 6 37 -1 27
-14 28 -14 40 21 9 27 13 29 43 24 32 -6 35 -4 77 62 25 37 50 75 58 83 57 65
93 113 93 124 0 19 -30 41 -75 54 -56 17 -65 24 -80 68 -17 51 -33 54 -37 7z"/>
<path d="M513 1072 c-40 -15 -56 -36 -34 -44 5 -1 12 -19 16 -38 7 -31 6 -33
-9 -21 -14 11 -16 11 -16 -3 0 -9 8 -20 18 -23 25 -10 40 -27 48 -57 5 -20 2
-26 -10 -26 -22 0 -20 -9 10 -36 23 -22 24 -26 10 -40 -9 -9 -21 -24 -26 -35
-9 -15 -8 -17 5 -13 9 4 20 15 26 26 10 18 13 19 26 5 18 -17 10 -37 -15 -37
-13 0 -14 -2 -3 -12 10 -11 15 -9 27 6 7 11 17 17 20 14 10 -11 -6 -46 -22
-50 -11 -2 -9 -6 7 -16 19 -12 21 -12 16 2 -5 11 -1 16 12 16 11 0 21 3 24 8
5 9 -1 -13 -9 -33 -5 -11 -2 -13 10 -9 9 3 16 10 16 15 0 5 5 9 11 9 5 0 7 -4
4 -10 -3 -5 -1 -10 5 -10 6 0 8 -4 5 -10 -3 -5 -14 -10 -24 -10 -14 0 -17 -6
-13 -26 l5 -27 19 24 c15 20 17 21 12 4 -4 -11 -12 -26 -17 -33 -16 -21 0 -25
20 -5 17 17 27 83 13 83 -3 0 -6 8 -6 18 -1 9 -4 25 -9 35 -5 13 -2 17 13 17
12 0 24 -5 27 -10 4 -7 12 -7 25 0 13 7 21 6 29 -4 9 -11 9 -15 -1 -19 -8 -4
-4 -8 10 -13 17 -5 20 -9 11 -15 -19 -11 -7 -19 33 -23 40 -3 83 -29 74 -45
-4 -5 -2 -12 4 -16 6 -4 8 -10 5 -15 -5 -7 -21 -8 -68 -1 -5 0 -6 5 -3 9 3 5
-10 14 -29 20 -19 5 -33 6 -30 2 3 -5 -2 -15 -10 -23 -19 -20 -19 -31 1 -23 8
3 12 2 9 -4 -3 -6 1 -13 9 -16 9 -3 16 -13 16 -21 0 -8 5 -11 10 -8 6 3 10 1
10 -5 0 -7 7 -9 16 -6 15 6 15 4 3 -11 -12 -15 -12 -16 5 -10 10 4 25 2 33 -4
24 -20 41 14 46 94 2 22 25 22 50 0 18 -17 20 -17 38 6 10 13 19 29 19 37 0 8
9 14 19 14 28 0 31 10 19 61 -14 59 -68 118 -68 75 0 -17 -5 -21 -41 -30 -22
-5 -28 -2 -32 15 -7 25 1 49 15 49 6 0 5 -6 -2 -15 -11 -13 -8 -15 15 -15 47
0 56 26 29 79 -14 25 -33 53 -43 62 -10 8 -26 29 -34 46 -9 17 -23 33 -32 36
-21 9 -45 -2 -45 -20 0 -13 -9 -15 -45 -11 -39 5 -45 3 -45 -12 0 -10 -3 -26
-6 -35 -5 -13 -9 -14 -15 -3 -7 11 -11 10 -19 -2 -7 -11 -5 -16 5 -18 8 -2 15
-8 15 -14 0 -6 19 -28 42 -49 34 -32 44 -37 56 -26 13 10 13 12 -6 15 -13 2
-19 8 -15 18 3 9 -1 14 -13 14 -15 0 -15 3 6 25 18 19 27 22 41 14 15 -7 22
-4 35 16 27 41 38 14 13 -33 -18 -33 -20 -44 -10 -56 11 -13 16 -12 39 9 33
30 43 13 12 -20 l-21 -23 22 -47 c12 -26 28 -49 35 -52 22 -8 -3 -43 -29 -41
-20 2 -22 7 -22 47 1 54 -3 65 -19 52 -31 -26 -123 -13 -112 16 3 7 -1 13 -9
13 -8 0 -15 -5 -15 -11 0 -5 -4 -7 -10 -4 -5 3 -10 1 -10 -6 0 -8 -4 -8 -15 1
-9 7 -14 19 -11 26 3 7 -4 16 -14 19 -10 3 -22 15 -25 26 -9 27 -18 24 -39
-16 -11 -19 -22 -32 -25 -29 -13 13 -5 50 13 65 20 16 20 17 -2 30 -26 16 -28
36 -7 66 18 26 4 41 -37 39 -16 -1 -28 2 -28 6 0 4 9 8 20 8 19 0 24 10 20 39
-2 15 19 33 31 26 3 -3 5 -22 4 -44 -2 -38 0 -41 31 -51 19 -6 38 -9 44 -5 13
8 13 35 0 35 -20 0 -23 31 -4 45 18 15 18 16 -5 35 -26 22 -43 25 -72 10 -15
-9 -21 -7 -25 5 -7 18 -26 18 -81 -3z"/>
<path d="M320 1030 c-11 -11 -20 -24 -20 -29 0 -5 9 -11 20 -14 11 -3 20 -10
20 -15 0 -6 -9 -14 -20 -17 -35 -11 -22 -25 20 -21 50 5 59 -8 26 -39 -32 -29
-32 -33 -3 -28 12 2 31 -2 41 -10 18 -13 18 -15 -12 -28 -18 -8 -32 -19 -32
-25 0 -6 -7 -17 -15 -24 -18 -15 -20 -30 -4 -30 6 0 13 9 16 20 6 24 13 25 38
6 18 -13 18 -17 6 -40 -8 -14 -21 -26 -30 -25 -11 0 -12 2 -3 6 6 2 12 11 12
19 0 9 5 12 12 8 7 -4 8 -3 4 4 -4 7 -12 12 -17 12 -14 0 -40 -26 -33 -33 3
-3 -4 -8 -16 -12 -16 -5 -29 -1 -44 14 -21 21 -21 22 -1 27 15 4 20 13 19 37
-3 65 -15 95 -43 103 -66 19 -115 10 -123 -24 -8 -28 5 -44 36 -45 15 -1 26
-8 26 -16 0 -9 7 -11 21 -8 24 6 49 -1 49 -14 0 -5 -7 -9 -16 -9 -10 0 -14 -6
-11 -15 7 -18 -9 -30 -17 -13 -4 7 -4 -4 -2 -25 3 -22 1 -35 -5 -32 -5 4 -9
-2 -9 -11 0 -14 -3 -15 -12 -6 -16 16 -23 15 -41 -3 -13 -13 -19 -13 -46 1
-17 8 -34 22 -39 30 -7 12 -11 12 -30 -2 -17 -12 -22 -24 -20 -47 3 -31 4 -32
45 -29 37 3 45 0 71 -29 28 -32 31 -33 56 -20 14 8 29 11 33 8 3 -4 12 -2 20
4 10 9 13 7 13 -8 0 -10 -5 -24 -11 -30 -9 -9 -4 -18 17 -37 16 -14 24 -26 17
-26 -7 0 -16 7 -21 16 -11 20 -34 10 -25 -11 3 -8 0 -15 -7 -15 -8 0 -10 8 -7
22 3 12 1 30 -5 41 -7 13 -7 17 0 13 6 -3 13 -2 16 3 3 5 -1 11 -9 15 -18 7
-22 1 -30 -56 -12 -77 -48 -57 -53 30 -1 12 -6 22 -12 22 -5 0 -7 -7 -3 -16 9
-25 -18 -36 -45 -18 -30 20 -52 4 -52 -37 0 -22 6 -32 26 -39 14 -6 30 -8 35
-5 5 4 6 0 3 -8 -3 -8 -13 -14 -22 -13 -18 1 -20 -16 -8 -81 12 -61 65 -109
79 -70 3 8 9 6 20 -8 10 -14 12 -24 5 -32 -14 -17 4 -43 40 -59 30 -12 31 -12
34 14 4 31 25 39 53 18 19 -14 19 -15 -7 -25 -16 -6 -28 -14 -28 -19 0 -15 36
-43 45 -35 4 5 5 -3 2 -17 -8 -32 17 -60 55 -60 23 0 28 4 28 25 0 28 21 33
40 10 9 -11 10 -18 1 -28 -15 -19 15 -45 49 -43 23 1 25 6 28 49 2 38 6 47 18
43 8 -3 14 -2 14 2 0 4 9 8 20 8 24 0 24 2 0 -48 -11 -23 -18 -43 -16 -45 9
-10 73 -13 86 -4 12 8 11 15 -7 50 -12 22 -19 49 -16 60 3 14 0 23 -11 27 -13
5 -14 9 -5 20 7 9 7 14 1 14 -5 0 -12 8 -15 19 -5 20 -65 35 -82 20 -13 -12
-58 -11 -50 1 3 6 17 10 31 10 15 0 24 6 24 15 0 17 -16 21 -22 5 -2 -6 -8 -2
-15 9 -10 16 -8 22 10 37 l22 19 -20 -24 -20 -24 23 7 c13 4 22 3 22 -3 0 -13
33 -23 53 -15 13 5 14 10 6 26 -13 24 -10 27 24 30 32 3 43 34 15 41 -22 6
-20 32 3 32 8 0 20 -6 27 -15 11 -13 14 -13 26 3 8 10 20 15 30 11 15 -6 15
-7 -1 -19 -15 -12 -16 -14 -3 -19 8 -2 26 -3 40 -2 14 2 37 4 53 5 32 1 38 30
7 38 -11 3 -17 9 -14 14 9 15 -17 51 -32 45 -8 -3 -14 -1 -14 5 0 6 -8 5 -21
-2 -12 -6 -19 -7 -15 -1 7 12 -3 42 -15 42 -4 0 -5 -7 -2 -17 4 -11 3 -14 -5
-9 -7 4 -12 2 -12 -6 0 -10 -2 -10 -9 0 -4 8 -11 13 -15 13 -21 -3 -28 2 -12
8 17 6 17 8 3 14 -8 3 -21 -1 -27 -9 -7 -8 -21 -14 -31 -14 -10 0 -20 -4 -24
-9 -3 -6 12 -8 37 -6 26 3 37 1 29 -4 -7 -5 -11 -13 -8 -19 4 -5 -1 -17 -11
-25 -17 -15 -19 -15 -32 3 -11 16 -17 17 -29 7 -10 -8 -13 -9 -8 0 4 6 1 13
-5 16 -10 3 -10 7 1 20 7 10 10 17 5 18 -5 0 1 4 14 10 22 8 22 10 7 25 -14
15 -17 69 -6 123 1 3 6 0 12 -6 5 -5 21 -8 35 -5 18 3 22 7 13 13 -7 4 -19 3
-26 -3 -10 -8 -13 -6 -13 6 0 10 -7 15 -22 13 -18 -1 -24 4 -26 23 -2 13 -11
30 -20 36 -14 10 -15 16 -5 32 8 13 8 23 1 30 -5 5 -10 26 -11 47 -1 33 -3 36
-24 30 -28 -7 -29 -1 -3 32 19 24 19 28 5 49 -12 19 -13 27 -3 43 15 25 9 32
-31 33 -19 1 -31 6 -31 15 0 20 -37 16 -60 -7z m42 -360 c-2 -7 3 -10 11 -7
13 5 13 1 0 -24 -22 -44 -65 -63 -77 -33 -3 9 -2 12 5 9 6 -4 13 3 16 15 3 11
11 19 18 16 8 -3 11 4 9 20 -1 16 2 24 9 21 7 -3 11 -10 9 -17z m76 -47 c18
-4 20 -8 10 -14 -11 -8 -11 -11 1 -18 11 -7 7 -15 -18 -40 -35 -34 -43 -38
-35 -17 3 8 0 17 -6 21 -6 3 -10 3 -9 -2 4 -22 -2 -25 -15 -7 -14 18 -15 18
-21 -9 -4 -15 -11 -27 -16 -27 -9 0 -13 17 -9 35 1 6 3 15 3 22 0 7 3 10 6 8
4 -2 15 3 26 11 10 8 15 14 10 14 -12 0 28 29 40 30 6 0 21 -3 33 -7z m-128
-78 c0 -5 -4 -3 -10 5 -5 8 -12 11 -16 7 -4 -3 -1 -13 6 -22 7 -9 10 -18 7
-21 -3 -3 -11 4 -17 16 -9 16 -8 25 1 36 10 12 14 12 20 2 5 -7 9 -17 9 -23z
m28 -76 c0 -16 -3 -29 -8 -29 -4 0 -11 -7 -14 -15 -4 -13 -2 -14 12 -6 12 7
22 5 36 -7 18 -16 18 -16 12 6 -6 16 -3 22 9 22 11 0 14 -6 9 -25 -4 -15 -2
-25 5 -25 6 0 11 -4 11 -10 0 -5 -9 -10 -20 -10 -11 0 -20 -5 -20 -11 0 -5 -5
-7 -11 -3 -8 5 -8 9 1 14 7 4 9 13 5 20 -6 9 -9 9 -16 -1 -7 -11 -9 -10 -9 4
0 9 -4 17 -10 17 -9 0 -11 -6 -14 -42 -1 -7 6 -13 14 -13 8 0 17 -11 18 -24 3
-18 6 -21 12 -10 17 26 24 -3 8 -30 -15 -27 -15 -30 5 -46 14 -12 22 -14 25
-7 3 11 32 18 32 8 0 -2 3 -11 6 -20 4 -11 0 -14 -18 -12 -40 4 -78 18 -78 27
0 14 -28 11 -33 -3 -3 -7 -6 -1 -6 15 -1 28 -15 37 -24 15 -3 -7 -6 0 -6 16
-1 28 -1 28 -26 12 -29 -19 -38 -20 -32 -3 2 6 -5 29 -15 51 -16 31 -17 40 -6
47 18 12 41 11 33 -1 -3 -5 1 -10 9 -10 8 0 20 -8 25 -17 6 -10 11 -13 11 -7
0 5 -5 15 -12 22 -9 9 -9 15 -1 23 8 8 13 5 18 -10 7 -23 20 -27 31 -9 4 6 -1
17 -11 25 -14 9 -15 13 -4 13 8 1 3 9 -13 21 -16 11 -28 28 -28 37 0 13 3 12
15 -6 10 -14 25 -21 40 -20 29 3 30 6 10 28 -13 14 -12 16 4 17 13 1 18 -6 19
-28z m-33 1 c3 -5 -1 -10 -9 -10 -8 0 -18 5 -21 10 -3 6 1 10 9 10 8 0 18 -4
21 -10z m205 -85 c0 -13 -35 -35 -56 -35 -17 0 -27 8 -34 26 -13 34 -13 39 5
24 8 -7 12 -16 10 -21 -3 -4 4 -7 15 -6 20 1 29 17 10 17 -5 0 -14 9 -19 19
-10 19 -10 19 29 0 22 -11 40 -21 40 -24z m-370 -10 c-7 -8 -18 -15 -24 -15
-6 0 -2 7 8 15 25 19 32 19 16 0z m390 -49 c0 -3 -4 -8 -10 -11 -5 -3 -10 -1
-10 4 0 6 5 11 10 11 6 0 10 -2 10 -4z m14 -24 c3 -5 -1 -9 -9 -9 -8 0 -12 4
-9 9 3 4 7 8 9 8 2 0 6 -4 9 -8z m-26 -108 c2 -1 -4 -16 -14 -32 -15 -27 -22
-30 -53 -25 -40 5 -81 22 -81 34 0 4 15 5 34 2 28 -4 35 -2 41 15 5 18 12 20
38 15 18 -3 34 -7 35 -9z"/>
<path d="M410 605 c-11 -13 -10 -14 4 -9 9 3 16 10 16 15 0 13 -6 11 -20 -6z"/>
<path d="M285 340 c3 -5 8 -10 11 -10 2 0 4 5 4 10 0 6 -5 10 -11 10 -5 0 -7
-4 -4 -10z"/>
<path d="M660 900 c0 -5 7 -10 15 -10 8 0 15 5 15 10 0 6 -7 10 -15 10 -8 0
-15 -4 -15 -10z"/>
<path d="M110 797 c-23 -19 -39 -52 -31 -65 8 -13 98 -35 112 -27 19 12 9 43
-16 49 -15 4 -27 16 -31 31 -7 28 -12 30 -34 12z"/>
<path d="M485 800 c-4 -6 5 -10 20 -10 15 0 24 4 20 10 -3 6 -12 10 -20 10 -8
0 -17 -4 -20 -10z"/>
<path d="M751 797 c2 -1 13 -9 24 -17 19 -14 19 -14 6 3 -7 9 -18 17 -24 17
-6 0 -8 -1 -6 -3z"/>
<path d="M535 690 c3 -5 8 -10 11 -10 2 0 4 5 4 10 0 6 -5 10 -11 10 -5 0 -7
-4 -4 -10z"/>
<path d="M510 680 c0 -5 5 -10 11 -10 5 0 7 5 4 10 -3 6 -8 10 -11 10 -2 0 -4
-4 -4 -10z"/>
<path d="M604 630 c-6 -6 -24 -12 -39 -14 -36 -4 -48 -50 -15 -59 12 -3 20
-13 20 -27 0 -18 3 -20 14 -11 7 6 27 8 45 5 25 -5 31 -3 31 10 0 10 -4 15 -9
11 -5 -3 -12 -1 -16 5 -3 5 -1 10 4 10 20 0 11 27 -11 38 -20 9 -20 11 -5 11
10 1 17 6 15 13 -6 17 -22 20 -34 8z"/>
<path d="M724 612 c5 -13 1 -22 -10 -26 -9 -4 -15 -9 -12 -11 3 -3 13 -3 22 1
18 7 22 39 5 50 -7 4 -9 0 -5 -14z"/>
<path d="M826 621 c-3 -5 3 -11 14 -14 13 -3 20 0 20 9 0 15 -26 19 -34 5z"/>
<path d="M730 561 c0 -5 5 -13 10 -16 6 -3 10 -2 10 4 0 5 -4 13 -10 16 -5 3
-10 2 -10 -4z"/>
<path d="M540 540 c0 -5 5 -10 11 -10 5 0 7 5 4 10 -3 6 -8 10 -11 10 -2 0 -4
-4 -4 -10z"/>
<path d="M1003 502 c-27 -3 -33 -7 -33 -28 0 -19 5 -24 27 -24 29 0 26 -10 -4
-14 -28 -4 -28 -34 1 -63 32 -31 46 -23 77 46 35 79 24 92 -68 83z"/>
<path d="M565 450 c-3 -5 -1 -10 4 -10 6 0 11 5 11 10 0 6 -2 10 -4 10 -3 0
-8 -4 -11 -10z"/>
<path d="M822 429 c-23 -76 -22 -95 4 -69 14 14 44 2 44 -17 0 -8 -12 -31 -27
-51 -23 -29 -25 -35 -9 -29 22 9 56 -17 56 -43 0 -25 46 -35 74 -17 35 24 31
62 -9 86 -20 11 -43 18 -53 14 -9 -3 1 10 23 30 l40 36 -30 25 c-16 14 -38 25
-47 26 -10 0 -17 6 -15 13 1 6 -5 12 -13 12 -8 0 -18 4 -21 9 -4 4 -11 -7 -17
-25z"/>
<path d="M625 333 c10 -21 -5 -36 -21 -22 -11 9 -18 9 -26 1 -9 -9 -9 -12 2
-12 11 0 11 -3 2 -12 -27 -27 -14 -38 39 -33 62 7 71 1 57 -30 -6 -14 -8 -28
-5 -31 9 -10 71 4 93 21 17 14 17 16 3 28 -8 6 -24 24 -33 40 -10 15 -24 27
-31 27 -7 0 -16 6 -18 13 -4 10 -6 10 -6 0 -1 -19 -32 -16 -48 5 -8 9 -12 11
-8 5z"/>
<path d="M775 310 c-3 -5 -1 -10 4 -10 6 0 11 5 11 10 0 6 -2 10 -4 10 -3 0
-8 -4 -11 -10z"/>
<path d="M618 243 c-10 -2 -18 -9 -18 -14 0 -6 8 -5 20 1 11 6 20 13 20 15 0
3 -1 4 -2 4 -2 -1 -11 -3 -20 -6z"/>
<path d="M800 184 c0 -16 -60 -26 -76 -13 -15 12 -74 3 -74 -12 0 -5 6 -9 14
-9 17 0 28 -40 15 -56 -14 -17 -1 -23 56 -29 45 -4 50 -2 81 32 36 39 43 63
19 63 -7 0 -19 8 -24 18 -6 9 -11 12 -11 6z"/>
</g>
</svg>
